<?xml version="1.0" encoding="UTF-8"?>
<!DOCTYPE svg  PUBLIC '-//W3C//DTD SVG 1.1//EN'  'http://www.w3.org/Graphics/SVG/1.1/DTD/svg11.dtd'>
<svg clip-rule="evenodd" fill-rule="evenodd" stroke-linecap="round" stroke-linejoin="round" stroke-miterlimit="1.5" version="1.1" viewBox="0 0 413 413" xml:space="preserve" xmlns="http://www.w3.org/2000/svg">
    <g transform="translate(-107.36 -183.77)">
        <g transform="matrix(-.32879 .17362 .20143 .28339 64.881 226.38)">
            <path d="m-501.24 321.88c1.782 8.691 0.276 17.461-3.094 25.141-3.37 7.679-8.442 14.288-14.177 19.439-5.736 5.151-12.204 8.885-19.657 10.891-7.454 2.006-16.76 3.576-25.312 1.587-8.551-1.988-14.455-7.382-19.275-12.714-4.82-5.331-9.887-11.58-18.372-17.654s-16.692-12.479-20.129-18.702c-3.437-6.224-5.606-12.536-6.252-18.713s0.287-11.647 2.498-16.436c2.211-4.788 5.701-8.896 10.228-12.327 4.528-3.43 10.094-6.189 16.514-8.194s13.69-3.261 21.712-3.532c8.021-0.272 16.052 0.475 23.809 2.3 7.756 1.825 15.244 4.736 21.982 8.818 6.737 4.083 12.714 9.354 17.283 15.703 4.57 6.35 10.46 15.703 12.242 24.393z" fill="#96d6ff" fill-rule="nonzero"/>
            <g transform="matrix(13.851 0 0 13.851 8106.6 -4801.3)">
                <path d="m-627.37 365.87c-0.449 0.053-0.865 0.145-1.245 0.269-0.506 0.166-0.947 0.388-1.308 0.662-0.361 0.273-0.641 0.597-0.822 0.975s-0.262 0.809-0.22 1.296c0.042 0.488 0.202 0.987 0.464 1.48 0.261 0.492 0.792 1.001 1.468 1.473 0.677 0.471 1.086 0.964 1.461 1.383 0.373 0.417 0.907 0.683 1.619 0.741 0.082 7e-3 0.099-0.244 0.027-0.263-0.624-0.162-1.006-0.576-1.375-0.888-0.34-0.374-0.697-0.812-1.296-1.237-0.599-0.426-1.179-0.875-1.422-1.311-0.243-0.437-0.397-0.88-0.444-1.314-0.046-0.434 0.02-0.818 0.176-1.155 0.155-0.337 0.401-0.627 0.721-0.869s0.712-0.437 1.166-0.579c0.227-0.071 0.47-0.129 0.726-0.172 0.256-0.042 0.526-0.07 0.809-0.081 0.567-0.02 1.133 0.032 1.681 0.159 0.547 0.128 1.076 0.332 1.55 0.619 0.475 0.286 0.895 0.656 1.217 1.101s0.737 1.1 0.864 1.709c0.104 0.501 0.058 1.007-0.107 1.467-0.03 0.086 0.399 0.236 0.503-8e-3 0.194-0.456 0.187-0.993 0.082-1.5-0.143-0.685-0.553-1.415-0.91-1.92-0.357-0.504-0.825-0.922-1.351-1.242s-1.109-0.544-1.714-0.68-1.232-0.186-1.86-0.153c-0.157 8e-3 -0.31 0.021-0.46 0.038z" fill="#394655" fill-rule="nonzero"/>
            </g>
            <path d="m-603.02 330.42c-0.11-2.095 1.744-3.959 5.775-4.961 6.124-1.522 16.031 1.477 22.35 4.537 3.467 1.679 7.112 3.113 10.134 5.756 1.025 0.897 2.014 1.826 2.694 3.527-1.326 0.461-3.284-0.738-4.698-1.705-5.574-3.812-11.756-6.472-18.141-7.301-5.373-0.697-7.096-2.488-11.805-2.049-2.98 0.277-3.925 1.711-6.309 2.196z" fill="#394655" fill-rule="nonzero"/>
            <path d="m-576.14 329.35c0.228-1.86 0.696 3.123-0.255 4.368-3.568 4.672-6.562 9.856-9.937 14.692-1.099 1.574-2.635 0.033-1.942-1.679 0.705-1.739 1.649-3.199 2.68-4.652 0.966-1.361 2.251-2.446 3.11-3.888 1.653-2.77 1.917-5.303 3.404-8.191 0.51-0.991 2.818 0.34 2.939-0.648l1e-3 -2e-3z" fill="#394655" fill-rule="nonzero"/>
        </g>
        <g transform="matrix(-.6972 .2229 .41767 .92199 475.72 -87.506)" fill-rule="nonzero">
            <path d="m338.8 465.47c-4e-3 3.521-0.959 6.071-2.701 7.863-1.741 1.792-4.265 2.841-7.316 3.554-3.052 0.713-6.626 1.116-10.446 1.471-3.819 0.354-7.881 0.632-11.96 0.879s-7.956 0.278-11.522 0.069c-3.565-0.209-6.818-0.639-9.594-1.369-2.775-0.731-5.07-1.771-6.685-3.275-1.615-1.503-2.549-3.475-2.603-6.008-0.055-2.533 0.798-4.389 2.34-5.667 1.541-1.279 3.77-1.971 6.48-2.278 2.709-0.306 5.898-0.226 9.416-0.128s7.368 0.187 11.465-0.098 8.218-1.179 12.128-2.033c3.911-0.854 7.604-1.641 10.751-1.816 3.147-0.176 5.742 0.258 7.519 1.636 1.776 1.378 2.731 3.68 2.728 7.2z" fill="#e1d6b9"/>
            <path d="m329.53 454.84c-3-0.022-6.469 0.432-10.209 1.03-4.274 0.683-8.886 1.536-13.608 1.861-4.722 0.324-9.129 0.306-13.158 0.331s-7.683 0.128-10.806 0.687-5.708 1.574-7.527 3.175c-1.818 1.601-2.868 3.774-2.921 6.541-0.054 2.767 0.974 5.046 2.834 6.864s4.55 3.184 7.809 4.2c3.259 1.017 7.082 1.695 11.246 2.078 4.163 0.383 8.667 0.449 13.362 0.178 4.696-0.271 9.177-0.629 13.285-1.079 4.107-0.451 7.834-0.979 10.965-1.875 1.191-0.341 2.294-0.743 3.302-1.216 2.036-0.955 1.64-4.938-0.08-3.633-1.593 1.209-3.648 2.003-6.056 2.566-2.935 0.686-6.374 1.073-10.047 1.414-3.674 0.341-7.58 0.608-11.503 0.845-3.923 0.238-7.652 0.268-11.081 0.067-3.43-0.201-6.559-0.614-9.229-1.317-2.669-0.702-4.876-1.704-6.429-3.15-1.554-1.446-2.453-3.342-2.505-5.778s0.769-4.222 2.252-5.451c1.482-1.23 3.625-1.896 6.231-2.191s5.674-0.218 9.058-0.124c3.383 0.095 7.086 0.181 11.026-0.093 3.941-0.275 7.904-1.134 11.666-1.955 3.761-0.821 7.312-1.578 10.339-1.747 0.378-0.021 0.75-0.034 1.111-0.036 0.928-5e-3 1.8 0.036 2.6 0.189 0.922 0.178 1.852-2.289-0.67-2.342-0.41-8e-3 -0.828-0.036-1.257-0.039z" fill="#394655"/>
        </g>
        <g transform="matrix(-.11933 .60316 1.3606 .30916 61.486 35.736)" fill-rule="nonzero">
            <path d="m613.84 309.86c8.899 6.373 25.423 9.04 35.786 12.436 10.363 3.397 14.519 7.488 17.703 10.699 3.185 3.21 4.756 5.715 3.775 7.621-0.981 1.907-4.435 3.196-11.201 3.85s-12.728 0.096-18.419-1.381-11.046-3.893-17.365-6.882-13.861-6.441-20.649-11.348c-6.787-4.907-14.098-11.12-18.513-19.307-4.416-8.186-4.626-17.075-4.298-24.706 0.329-7.631 1.209-14.043 2.173-18.999 0.964-4.957 2.172-8.54 3.817-10.936 1.644-2.396 3.721-3.621 6.175-3.621s4.563 1.465 6.1 4.399c1.538 2.935 2.439 7.396 2.63 13.408 0.19 6.013-0.538 13.665 0.272 21.759 0.809 8.094 3.116 16.636 12.014 23.008z" fill="#394655"/>
            <path d="m608.65 310.09c6.683 5.783 18.723 9.075 29.543 11.883 10.819 2.808 17.41 6.008 21.131 9.036 3.72 3.028 5.634 5.569 5.514 7.425-0.12 1.855-2.458 3.081-7.995 3.629-5.538 0.549-10.5-0.143-15.351-1.726s-9.61-4.053-15.699-6.919c-6.088-2.865-13.555-6.094-19.991-10.572s-12.659-10.123-16.722-16.996c-4.063-6.874-4.811-14.241-4.794-20.735 0.018-6.495 0.748-12.119 1.494-16.536 0.745-4.417 1.613-7.678 2.706-9.844 1.092-2.166 2.427-3.255 4.015-3.211 1.589 0.044 2.862 1.478 3.692 4.22 0.83 2.743 1.158 6.836 1.179 12.122 0.021 5.287-0.349 11.809 0.73 18.62 1.08 6.812 3.865 13.82 10.548 19.604z" fill="#e1d6b9"/>
        </g>
        <g transform="translate(-9.574 .11834)">
            <path d="m293.77 224.97c1.016 0 2.032 0.014 3.05 0.041 34.222 0.9 72.563 4.556 97.683 32.439 26.273 29.162 40.69 70.192 33.982 107.79-2.965 16.615-9.753 39.128-14.194 49.925-1.64 3.988 1.429 10.568 2.702 11.501 7.789 5.707 6.865 0.777 19.01 16.194 9.062 11.503 13.776 30.611 14.049 45.756 0.065 3.649-1.398 10.839-2.374 13.231-11.593 28.427-36.078 43.667-81.784 55.793-13.082 3.471-26.387 5.473-39.474 6.41-27.158-1.117-54.236-4.906-80.11-13.814-26.125-8.993-44.916-32.719-59.819-59.107-23.58-41.754-28.604-92.933-21.852-141.18 5.648-40.361 9.326-69.584 41.778-93.417 25.877-19.004 55.881-31.581 87.353-31.569z" fill="#394655" fill-rule="nonzero"/>
        </g>
        <g transform="translate(-9.4533 .239)">
            <path d="m293.94 229.5c34.394 0.233 73.164 3.665 98.384 31.823 23.452 26.183 34.967 61.736 32.383 95.716-1.48 19.467-3.344 36.757-11.398 55.097-0.958 2.181-2.417 7.31-3.954 8.856-6.845 6.884-17.628 5.087-17.519 8.032 0.077 2.067 5.03-7.421 23.496-0.473 14.247 5.361 22.542 20.305 28.045 35.823 2.835 7.996 2.908 17.122 3.09 25.659 0.079 3.699-0.724 10.274-1.636 12.115-12.608 25.453-37.586 40.384-80.525 51.776-15.923 4.224-32.178 6.28-47.965 6.877-18.737-1.262-37.341-4.125-55.44-9.133-29.225-8.086-52.357-31.547-69.212-60.605-23.686-40.835-28.952-90.884-23.497-138.58 4.637-40.537 8.824-69.519 41.584-92.792 25.182-17.889 53.767-30.396 84.164-30.191z" fill="#96d6ff" fill-rule="nonzero"/>
        </g>
        <g transform="translate(-9.574 .11834)">
            <path d="m437.19 447.37c-6.705-9.262-15.91-18.248-27.304-19.725-5.474-0.71-12.225 1.641-19.864 3.064-28.861 5.376-83.515 24.471-84.979 23.094 26.368-12.261 65.551-20.194 91.114-27.552 4.53-1.305 10.034-1.656 12.984-4.769 1.786-1.886 3.727 1.231 3.727 1.231 1.224 1.423 5.177 5.847 10.942 8.631 1.922 0.928 6.66 6.838 6.859 7.17 0.199 0.331 6.521 8.856 6.521 8.856z" fill="#394655" fill-rule="nonzero"/>
        </g>
        <g transform="matrix(-.19756 -.64741 .92085 -.16782 -33.839 836.3)" fill-rule="nonzero">
            <path d="m338.8 465.47c-4e-3 3.521-0.959 6.071-2.701 7.863-1.741 1.792-4.265 2.841-7.316 3.554-3.052 0.713-6.626 1.116-10.446 1.471-3.819 0.354-7.881 0.632-11.96 0.879s-7.956 0.278-11.522 0.069c-3.565-0.209-6.818-0.639-9.594-1.369-2.775-0.731-5.07-1.771-6.685-3.275-1.615-1.503-2.549-3.475-2.603-6.008-0.055-2.533 0.798-4.389 2.34-5.667 1.541-1.279 3.77-1.971 6.48-2.278 2.709-0.306 5.898-0.226 9.416-0.128s7.368 0.187 11.465-0.098 8.218-1.179 12.128-2.033c3.911-0.854 7.604-1.641 10.751-1.816 3.147-0.176 5.742 0.258 7.519 1.636 1.776 1.378 2.731 3.68 2.728 7.2z" fill="#e1d6b9"/>
            <path d="m329.53 454.84c-3-0.022-6.469 0.432-10.209 1.03-4.274 0.683-8.886 1.536-13.608 1.861-4.722 0.324-9.129 0.306-13.158 0.331s-7.683 0.128-10.806 0.687-5.708 1.574-7.527 3.175c-1.818 1.601-2.868 3.774-2.921 6.541-0.054 2.767 0.974 5.046 2.834 6.864s4.55 3.184 7.809 4.2c3.259 1.017 7.082 1.695 11.246 2.078 4.163 0.383 8.667 0.449 13.362 0.178 4.696-0.271 9.177-0.629 13.285-1.079 4.107-0.451 7.834-0.979 10.965-1.875 1.191-0.341 2.294-0.743 3.302-1.216 2.036-0.955 1.64-4.938-0.08-3.633-1.593 1.209-3.315 1.346-5.726 1.881-2.938 0.652-6.545 0.793-10.04 1.074s-7.023 1.427-10.651 1.662c-3.627 0.234-7.094 0.262-10.345 0.056s-6.285-0.625-8.9-1.314c-2.614-0.69-4.797-1.665-6.308-3.052-1.51-1.386-2.34-3.189-2.382-5.44-0.043-2.251 0.721-3.856 2.135-4.885 1.413-1.029 4.493-0.468 6.953-0.571s5.525-0.436 8.63-0.334c3.106 0.102 5.237-0.385 8.839-0.971s7.322-1.875 11.11-2.977 7.38-1.874 10.407-2.043c0.378-0.021 0.75-0.034 1.111-0.036 0.928-5e-3 1.8 0.036 2.6 0.189 0.922 0.178 1.852-2.289-0.67-2.342-0.41-8e-3 -0.828-0.036-1.257-0.039z" fill="#394655"/>
        </g>
        <g transform="matrix(.38329 -.18165 .18165 .38329 323.01 43.714)">
            <path d="m-501.26 321.36c1.797 9.08 0.294 17.911-3.075 25.63-3.368 7.719-8.44 14.324-14.175 19.475-5.736 5.151-12.204 8.889-19.657 10.889-7.454 2-16.76 3.577-25.317 1.462-8.556-2.115-14.473-7.849-19.318-13.8s-9.954-13.253-18.478-20.288c-8.523-7.034-16.761-14.23-20.24-21.498s-5.692-14.689-6.384-22.017c-0.692-7.329 0.198-13.892 2.369-19.668 2.172-5.776 5.626-10.764 10.129-14.829 4.502-4.066 10.053-7.209 16.474-9.192 6.42-1.983 13.708-2.804 21.767-2.133 8.059 0.67 16.145 2.778 23.962 6.122 7.817 3.345 15.371 7.927 22.169 13.518s12.828 12.192 17.437 19.532c4.608 7.341 10.539 17.716 12.337 26.797z" fill="#96d6ff" fill-rule="nonzero"/>
            <g transform="matrix(13.851 0 0 13.851 8106.6 -4801.3)">
                <path d="m-627.42 364.72c-0.451 0.012-0.868 0.086-1.247 0.21-0.507 0.165-0.946 0.421-1.305 0.748-0.358 0.326-0.636 0.723-0.814 1.18-0.177 0.457-0.255 0.974-0.209 1.55 0.045 0.575 0.209 1.157 0.473 1.725 0.265 0.568 0.797 1.135 1.476 1.667 0.679 0.531 1.091 1.095 1.467 1.551 0.375 0.454 0.91 0.728 1.622 0.791 0.082 8e-3 0.098-0.25 0.027-0.271-0.625-0.174-1.008-0.62-1.378-0.972-0.343-0.419-0.703-0.933-1.305-1.428s-1.183-1.001-1.429-1.513c-0.247-0.512-0.404-1.034-0.454-1.55-0.049-0.516 0.014-0.978 0.167-1.385 0.152-0.406 0.396-0.759 0.714-1.045 0.318-0.287 0.709-0.508 1.163-0.648 0.227-0.07 0.47-0.12 0.727-0.146s0.528-0.029 0.812-6e-3c0.57 0.046 1.14 0.195 1.692 0.43 0.551 0.235 1.085 0.558 1.564 0.952s0.903 0.858 1.227 1.375c0.325 0.517 0.743 1.247 0.871 1.887 0.105 0.525 0.06 1.039-0.105 1.504-0.031 0.086 0.399 0.243 0.503-2e-3 0.194-0.456 0.187-0.995 0.081-1.518-0.144-0.706-0.556-1.496-0.915-2.069-0.36-0.573-0.832-1.087-1.363-1.519-0.53-0.432-1.119-0.784-1.728-1.037-0.609-0.254-1.241-0.41-1.872-0.451-0.158-0.011-0.312-0.013-0.462-0.01z" fill="#394655" fill-rule="nonzero"/>
            </g>
            <path d="m-584.22 306.33c1.445-2.211 5.05-2.904 10.596-1.294 8.425 2.447 17.948 11.982 23.159 19.238 2.859 3.98 6.114 7.826 7.718 12.5 0.545 1.586 1.021 3.182 0.551 5.363-1.924-0.395-3.349-2.898-4.303-4.81-3.76-7.537-9.109-14.292-16.076-19.312-5.863-4.222-6.564-7.177-12.492-9.805-3.753-1.664-5.953-0.817-9.153-1.88z" fill="#394655" fill-rule="nonzero"/>
            <path d="m-551.46 322.8c1.67-1.751-1.522 3.644-3.589 4.295-7.755 2.441-15.214 5.781-22.862 8.516-2.491 0.89-3.158-1.688-1.046-2.984 2.146-1.316 4.366-2.191 6.684-3.002 2.173-0.759 4.516-1.028 6.622-1.939 4.048-1.749 6.267-4.164 10.207-6.144 1.351-0.678 3.094 2.189 3.981 1.26l3e-3 -2e-3z" fill="#394655" fill-rule="nonzero"/>
        </g>
    </g>
    <g transform="translate(2.2558 -86.252)">
        <g opacity=".07">
            <g transform="matrix(.9375 0 0 .9375 -9.574 .11834)">
                <path d="m141.39 152.96c-9.618 4.284-18.846 9.488-27.556 15.242-4.335 3.289-9.638 5.647-13.166 9.848 0.072 0.496-0.188 0.928-0.572 1.239-0.529 3.351-1.094 6.702-1.668 10.007-4.526 26.021-27.154 2.828-40.73 0-8.421-1.755-15.744-8.961-12.944-26.188-1.263 0.988-2.441 2.111-3.514 3.38-4.223 4.824-4.848 12.235-2.589 18.054 3.381 6.08 8.39 12.181 15.541 13.693 6.337 1.569 12.23 4.349 18.256 6.75 2.709 1.178 6.202 0.489 8.612 1.942-1.947 1.313-5.177 0.985-5.828 3.886-7.583 17.961-9.977 37.574-12.442 56.761-2.897 23.476-3.048 47.261-0.948 70.808 4.05 36.7 16.641 72.941 39.49 102.24 15.966 21.114 37.882 38.887 64.088 44.996 17.979 4.426 36.358 7.61 54.862 8.557 6.822-0.32 13.75-0.405 20.464-1.62 0.306-2.256-2.094-4.462-2.796-6.597-1.158-2.739-3.359-5.509-3.327-8.511 1.712-1.234 1.472-3.84 3.727-4.717 4.443-2.859 10.271-1.936 15.153-1.406 4.602 0.419 5.718 5.754 7.9 8.983 1.698 2.472 1.935 6.299 4.447 8.05 20.937-5.219 41.888-11.913 60.409-23.236 13.642-8.44 25.379-20.229 32.727-34.561 0.438-7.477 1.142-14.477 0.018-18.999-29.173 7.932-78.196 21.215-102.75 25.502-35.638 6.222-77.5 7.352-120.49-24.326-52.56-38.728-35.638-183.85-28.284-212.13 3.838-14.763 14.325-30.915 33.912-47.648z" fill="#1e1e1e" fill-rule="nonzero"/>
            </g>
            <g transform="translate(-4.4803 91.937)">
                <path d="m266.78 318.5c0.126-1.153-3.632-18.247-11.636-23.556s-16.321 4.556-30.181-9.824c-4.674-4.851-7.158-28.647-7.158-28.647s18.282-26.02 42.587-28.404c36.125-3.542 35.535 22 35.535 22s8.687 20.562 10.104 25.138c1.418 4.576 2.891 4.48 0.443 10.335-2.448 5.854 9.093 18.611 5.527 23.203-3.193 4.113-15.956 10.095-20.897 11.739-5.225 1.74-24.45-0.831-24.324-1.984z" fill="#1f1f1f"/>
            </g>
            <g transform="translate(8.4009 86.37)">
                <path d="m216.42 276.8c-11.376-0.062-23.076 1.951-35.151 6.378-2.306-5.276-5.656-8.857-9.735-11.254 5.06-19.816-5.893-43.555-13.713-52.26 13.908-0.053 28.066-6.386 42.468-18.853-2.046 21.744 3.474 43.444-1.98 62.58l22.414 0.131-4.303 13.278z"/>
            </g>
            <g transform="matrix(.9375 0 0 .9375 -9.574 .11834)">
                <path d="m224.08 112.02c-2.65 1.194-5.165 2.694-7.476 4.424-4.64 3.548-8.704 8.444-9.724 14.342-0.234 1.806-0.302 3.659-0.261 5.463 0.437 0.573 1.413 0.224 2.077 0.382 2.884 0.132 5.769 0.293 8.65 0.488-2.475-5.646-1.924-14.596 6.734-25.099z" fill="#1e1e1e" fill-rule="nonzero"/>
            </g>
        </g>
    </g>
    <g transform="translate(-107.36 -183.77)">
        <g transform="matrix(-.70546 0 0 .70546 513.1 159.7)">
            <path d="m437.94 254.53c-0.352 11.817-3.303 23.221-8.312 33.802-5.008 10.581-12.073 20.341-20.643 28.797-8.571 8.456-18.644 15.607-29.695 20.872s-23.081 8.642-35.602 9.49c-12.52 0.847-24.352-0.927-35.054-4.934-10.702-4.008-20.272-10.246-28.241-18.244-7.968-7.997-14.332-17.752-18.612-28.726s-6.473-23.168-6.114-35.985c0.36-12.818 3.236-25.035 8.114-36.063s11.757-20.866 20.136-29.006c8.379-8.141 18.258-14.585 29.169-18.929 10.911-4.345 22.858-6.594 35.383-6.42 12.526 0.173 24.449 2.741 35.288 7.153 10.84 4.411 20.593 10.67 28.741 18.332s14.69 16.73 19.102 26.826c4.412 10.095 6.692 21.217 6.34 33.035z" fill="#394655" fill-rule="nonzero"/>
            <path d="m431.78 251.83c1e-3 11.12-2.413 22.03-6.811 32.282s-10.784 19.844-18.701 28.202-17.364 15.473-27.828 20.703-21.941 8.57-33.902 9.413c-11.961 0.844-23.273-0.89-33.487-4.744-10.215-3.855-19.335-9.83-26.933-17.433-7.597-7.603-13.672-16.834-17.786-27.164-4.114-10.329-6.266-21.756-6.018-33.708 0.248-11.953 2.872-23.287 7.383-33.487 4.512-10.2 10.91-19.266 18.718-26.777 7.807-7.512 17.022-13.471 27.202-17.554 10.181-4.082 21.329-6.294 33.029-6.354 11.699-0.06 22.847 2.026 33.008 5.795 10.161 3.77 19.334 9.227 27.053 16.03 7.719 6.802 13.983 14.951 18.321 24.169 4.338 9.219 6.751 19.507 6.752 30.627z" fill="#fff" fill-rule="nonzero"/>
            <circle cx="336.39" cy="251.4" r="24.648" fill="#394455"/>
            <circle cx="325.48" cy="240.09" r="12.122" fill="#fff"/>
        </g>
        <g transform="matrix(-.37188 -.33036 -.33036 .37188 636.46 339.7)">
            <path d="m439.24 261.56c-3.004 10.966-7.956 21.998-14.507 32.606s-14.848 20.711-24.389 29.388-20.214 15.931-30.725 21.364c-10.511 5.432-20.808 9.083-30.701 10.404-9.894 1.321-18.601 0.148-26.455-3.219-7.855-3.366-18.325-7.371-23.993-14.533-5.668-7.161-10.272-16.146-13.203-26.427-2.93-10.281-4.183-21.863-3.139-34.183 1.044-12.319 4.293-24.2 9.454-35.004s12.232-20.526 20.807-28.626c8.574-8.099 22.754-16.234 33.799-20.693 11.045-4.46 23.066-6.903 35.368-7.043 12.301-0.141 23.701 2.02 33.554 5.899 9.853 3.88 18.158 9.481 24.288 16.278s10.181 14.848 11.859 23.857 0.988 18.966-2.017 29.932z" fill="#394655" fill-rule="nonzero"/>
            <path d="m434.79 260.77c-2.444 10.363-6.659 20.95-12.525 31.168-5.867 10.219-13.54 19.974-22.664 28.222s-19.595 14.984-29.967 19.912c-10.373 4.928-20.561 8.11-30.169 9.181s-17.875-0.105-25.195-3.261c-7.321-3.155-17.7-7.051-22.706-13.62s-8.995-14.828-11.444-24.3c-2.448-9.473-3.351-20.162-2.149-31.541 1.203-11.379 4.407-22.358 9.344-32.35 4.937-9.993 11.606-18.993 19.638-26.512 8.032-7.518 21.592-15.249 31.869-19.434 10.276-4.185 21.427-6.526 32.8-6.767 11.374-0.24 21.875 1.63 30.915 5.065 9.039 3.435 16.584 8.416 22.252 14.572s9.448 13.476 11.138 21.762c1.69 8.287 1.308 17.54-1.137 27.903z" fill="#fff" fill-rule="nonzero"/>
            <g transform="matrix(.9864 .16434 -.16434 .9864 0 0)">
                <circle cx="361.39" cy="177.56" r="22.177" fill="#394455"/>
            </g>
            <g transform="matrix(.9864 .16434 -.16434 .9864 0 0)">
                <circle cx="355.42" cy="166.87" r="10.907" fill="#fff"/>
            </g>
        </g>
    </g>
    <g transform="translate(2.2558 -86.252)">
        <g opacity=".07">
            <g transform="matrix(.9375 0 0 .9375 -9.574 .11834)">
                <path d="m147.19 205.69c-10.372 5.443-19.274 13.592-24.997 23.886-5.298 9.448-7.351 20.471-6.37 31.222 1.338 18.157 11.566 34.848 25.237 46.482 11.255 9.351 25.351 15.798 40.058 16.676 9.382 0.394 18.998-0.408 27.647-4.341 5.603-2.411 10.751-5.743 15.297-9.767-9.895 1.244-13.991 3.997-33.261 4.089-27.211 0.13-42.4-9.2-54.8-29.2-11.34-18.29-18.628-48.642 11.189-79.047z" fill="#1e1e1e" fill-rule="nonzero"/>
            </g>
            <g transform="matrix(.9375 0 0 .9375 -9.574 .11834)">
                <path d="m325.6 192.7c-7.426 1.923-13.585 7.824-17.268 14.475-7.261 12.824-9.529 28.338-6.82 42.775 2.545 11.531 7.595 23.166 16.778 30.939 4.582 3.524 10.338 5.142 15.867 6.508 5.45 0.912 10.746-1.163 15.483-3.864-8.509 0.125-14.473-0.499-23.842-5.602-13.497-7.35-16.692-18.781-19.4-34.8-2.336-13.819-3.039-31.762 19.202-50.431z" fill="#1e1e1e" fill-rule="nonzero"/>
            </g>
        </g>
    </g>
    <g transform="translate(-107.36 -183.77)">
        <g transform="translate(-9.574 .11834)">
            <path d="m383.33 357.23c-0.449 9e-3 -0.905 0.034-1.367 0.075-1.846 0.165-3.613 0.58-5.21 1.185s-3.025 1.398-4.181 2.319c-0.828 0.659-1.509 1.387-2.015 2.153-0.4 0.098-0.804 0.186-1.199 0.296-3.051 0.847-5.926 2.034-8.323 3.485-2.397 1.45-4.367 3.121-5.517 5.008-1.177 1.933-1.577 4.111-1.442 5.836 0.158 2.025 1.406 3.856 3.178 5.505 1.773 1.649 4.221 3.111 7.056 4.308 1.13 0.477 2.328 0.896 3.553 1.276l-0.67 4.673-1.254 6.338c-0.225 1.142 0.075 2.148 0.629 2.88 0.553 0.732 1.403 1.15 2.404 1.173l3.337 0.081 6.602-0.154c1.266-0.029 2.442-0.522 3.304-1.277 0.863-0.756 1.374-1.783 1.477-2.905l0.577-6.29 0.237-3.186c2.757-0.422 5.25-1.121 7.45-1.96 2.509-0.957 4.616-2.091 6.276-3.35s2.887-2.655 3.662-4.212c0.775-1.556 1.096-3.278 0.814-5.135-0.281-1.857-1.151-3.667-2.494-5.331-1.118-1.384-2.572-2.656-4.247-3.773 9e-3 -0.442-0.016-0.895-0.104-1.36-0.214-1.129-0.713-2.21-1.469-3.189-0.756-0.978-1.768-1.852-2.991-2.56-1.223-0.709-2.657-1.252-4.25-1.575-1.194-0.242-2.477-0.36-3.823-0.334z" fill="#1e1e1e" fill-opacity=".082353" fill-rule="nonzero"/>
        </g>
        <g transform="translate(.50229 -3.0636)" fill-rule="nonzero">
            <path d="m373.85 383.02l-5.675 0.074-3.308-0.073c-1.055-0.024-1.995 0.477-2.68 1.215-0.685 0.739-1.022 1.761-1.181 2.876l-0.903 6.316-1.254 6.338c-0.226 1.141 0.075 2.148 0.628 2.88 0.554 0.732 1.403 1.15 2.404 1.173l3.338 0.08 6.601-0.154c1.266-0.029 2.442-0.521 3.305-1.277 0.862-0.756 1.373-1.784 1.475-2.905l0.578-6.289 0.468-6.28c0.083-1.117-0.416-2.118-1.118-2.835-0.701-0.717-1.655-1.145-2.678-1.139z" fill="#2e3436"/>
            <path d="m372.82 384.93l-4.632 0.062-2.206-0.09c-0.838-0.035-1.611 0.388-2.193 0.993-0.582 0.604-0.922 1.441-1.08 2.356l-0.894 5.163-1.119 5.177c-0.199 0.924 2e-3 1.756 0.437 2.355 0.434 0.598 1.128 0.921 1.959 0.954l2.266 0.09 5.246-0.113c0.993-0.022 1.939-0.421 2.65-1.038s1.167-1.457 1.283-2.375l0.651-5.143 0.561-5.137c0.101-0.915-0.254-1.736-0.794-2.323-0.541-0.587-1.299-0.942-2.135-0.931z" fill="#fff"/>
            <path d="m346.99 377.66c0.158 2.025 1.405 3.856 3.178 5.506 1.773 1.649 4.221 3.111 7.056 4.308 2.836 1.198 6.034 2.119 9.274 2.611s6.523 0.546 9.749 0.157 6.116-1.163 8.624-2.12c2.508-0.956 4.615-2.091 6.275-3.35s2.887-2.654 3.662-4.21c0.775-1.557 1.096-3.28 0.815-5.137s-1.151-3.667-2.495-5.331c-1.343-1.664-3.151-3.178-5.273-4.438-2.123-1.261-4.557-2.266-7.245-2.925s-5.631-0.973-8.852-0.866c-3.22 0.106-6.434 0.618-9.485 1.466-3.051 0.847-5.927 2.035-8.323 3.485-2.397 1.451-4.367 3.122-5.517 5.009-1.177 1.932-1.577 4.11-1.443 5.835z" fill="#394655"/>
            <path d="m353.81 377.21c0.277 1.608 1.217 3.11 2.662 4.455 1.445 1.346 3.392 2.538 5.604 3.489s4.679 1.655 7.194 2.024c2.515 0.37 5.081 0.404 7.604 0.096s4.777-0.918 6.732-1.698 3.605-1.728 4.899-2.786c1.295-1.057 2.237-2.229 2.792-3.506 0.556-1.276 0.726-2.661 0.437-4.127-0.29-1.466-1.016-2.875-2.087-4.16-1.072-1.285-2.486-2.445-4.153-3.406-1.666-0.96-3.582-1.72-5.695-2.211s-4.422-0.715-6.923-0.611c-2.5 0.104-4.967 0.523-7.297 1.196s-4.52 1.602-6.37 2.729c-1.849 1.126-3.351 2.451-4.307 3.897-0.957 1.446-1.368 3.01-1.092 4.619z" fill="#e1d0cb"/>
            <path d="m362.75 367.4c0.403 1.152 1.28 2.176 2.493 3.04 1.213 0.863 2.757 1.569 4.433 2.11 1.675 0.541 3.475 0.92 5.236 1.121 1.762 0.201 3.484 0.225 5.098 0.046 1.615-0.178 2.977-0.541 4.13-1.047 1.153-0.505 2.097-1.152 2.84-1.915 0.744-0.762 1.288-1.64 1.604-2.613s0.403-2.041 0.188-3.171c-0.214-1.129-0.713-2.211-1.469-3.19-0.756-0.978-1.768-1.851-2.991-2.56-1.222-0.708-2.656-1.251-4.249-1.574-1.592-0.323-3.344-0.424-5.19-0.259s-3.613 0.58-5.21 1.185c-1.598 0.605-3.026 1.398-4.182 2.319s-2.04 1.969-2.535 3.078c-0.495 1.108-0.599 2.278-0.196 3.43z" fill="#394655"/>
        </g>
    </g>
    <g transform="matrix(1.8038 0 0 .52404 -1.5325 193.05)">
        <g transform="translate(-5.5902 .18589)">
            <path d="m17.646 357.38c-2.021-42.236-3.683-84.765-2.838-129.35l35.744-17.84 71.153 12.094c1.701 50.785 1.786 100.56 0.588 149.55l-72.068 18.065-32.579-32.514z" fill="#a5a5a5" stroke="#cfcfcf" stroke-width="1.88px"/>
        </g>
        <g transform="translate(-5.5902 .18589)">
            <path d="m17.646 357.38c-2.021-42.236-3.683-84.765-2.838-129.35l35.744-17.84 71.153 12.094c1.701 50.785 1.786 100.56 0.588 149.55l-72.068 18.065-32.579-32.514z" fill="#a5a5a5" stroke="#cfcfcf" stroke-width="1.88px"/>
        </g>
            <g transform="matrix(.4987 0 0 1.9082 -5.2376 -372.64)">
                <path d="m176.19 351.72c0-16.11-13.587-29.169-30.348-29.169s-30.348 13.059-30.348 29.169h30.348 30.348z" fill="#cfcfcf" stroke="#8f8f8f" stroke-width=".95px"/>
            </g>
            <g transform="matrix(.62555 .024439 -.0067489 2.0466 -4.7203 -419.52)">
                <path d="m119.2 347.52l-0.403-1.582-13.65-12.123-0.733-1.122 1.582 0.154 14.073 12.259 1.561 0.452-0.21 2.364-2.22-0.402z" fill="#9f9f9f"/>
            </g>
            <g transform="matrix(.62555 .024439 -.0067489 2.0466 -4.3548 -420.6)">
                <path d="m119.2 347.52l-0.403-1.582-13.65-12.123-0.733-1.122 1.582 0.154 14.073 12.259 1.561 0.452-0.21 2.364-2.22-0.402z" fill="#373737"/>
            </g>
                <g transform="matrix(.5544 0 0 1.9082 .8496 -368.39)">
                    <path d="m97.361 345.07l4.065 0.742" fill="none" stroke="#373737" stroke-width=".9px"/>
                </g>
                <g transform="matrix(.5544 0 0 1.9082 .8496 -368.39)">
                    <path d="m98.676 339.21l3.181 1.267" fill="none" stroke="#373737" stroke-width=".9px"/>
                </g>
                <g transform="matrix(.5544 0 0 1.9082 .8496 -368.39)">
                    <path d="m101.76 333.78l2.557 1.801" fill="none" stroke="#373737" stroke-width=".9px"/>
                </g>
                <g transform="matrix(.5544 0 0 1.9082 .8496 -368.39)">
                    <path d="m107.95 326.8l2.164 1.995" fill="none" stroke="#373737" stroke-width=".9px"/>
                </g>
                <g transform="matrix(.5544 0 0 1.9082 .8496 -368.39)">
                    <path d="m116.13 323.58l0.755 2.709" fill="none" stroke="#373737" stroke-width=".9px"/>
                </g>
                <g transform="matrix(.5544 0 0 1.9082 .8496 -368.39)">
                    <path d="m125.7 323.52l-1.271 3.581" fill="none" stroke="#373737" stroke-width=".9px"/>
                </g>
                <g transform="matrix(.5544 0 0 1.9082 .8496 -368.39)">
                    <path d="m132.97 327.58l-2.625 2.005" fill="none" stroke="#373737" stroke-width=".9px"/>
                </g>
                <g transform="matrix(.5544 0 0 1.9082 .8496 -368.39)">
                    <path d="m137.89 331.7l-2.55 2.186" fill="none" stroke="#373737" stroke-width=".9px"/>
                </g>
                <g transform="matrix(.5544 0 0 1.9082 .8496 -368.39)">
                    <path d="m141.84 336.95l-3.503 1.003" fill="none" stroke="#373737" stroke-width=".9px"/>
                </g>
                <g transform="matrix(.5544 0 0 1.9082 .8496 -368.39)">
                    <path d="m144 342.46l-4.817 1.185" fill="none" stroke="#373737" stroke-width=".9px"/>
                </g>
        <g transform="matrix(.47811 .14756 -.042872 1.6456 24.339 -282.34)">
            <ellipse cx="94.768" cy="376.9" rx="8.665" ry="9.253" fill="#cfcfcf"/>
        </g>
        <g transform="translate(-5.5902 .18589)">
            <path d="m15.604 228.87l34.069-16.757c-0.63 58.697-0.349 117.46 0.891 176.3l-32.198-31.565c-2.49-47.377-3.618-90.66-2.762-127.98z" fill="#8f8f8f"/>
        </g>
            <g transform="matrix(.80564 .043224 -.012558 2.773 -46.79 -656.98)">
                <ellipse cx="190.94" cy="336.12" rx="6.472" ry="7.681" fill="#373737"/>
            </g>
            <g transform="matrix(.5544 0 0 1.9082 .8496 -368.39)">
                <path d="m172.11 341.19l-3.954-0.11" fill="none" stroke="#373737" stroke-width=".9px"/>
            </g>
            <g transform="matrix(.5544 0 0 1.9082 .8496 -368.39)">
                <path d="m174.44 334.2l-3.81-2.826" fill="none" stroke="#373737" stroke-width=".9px"/>
            </g>
            <g transform="matrix(.5544 0 0 1.9082 .8496 -368.39)">
                <path d="m181.02 329.06l-1.256-2.473" fill="none" stroke="#373737" stroke-width=".9px"/>
            </g>
            <g transform="matrix(.5544 0 0 1.9082 .8496 -368.39)">
                <path d="m189.27 330.08l1.444-1.719" fill="none" stroke="#373737" stroke-width=".9px"/>
            </g>
            <g transform="matrix(.7302 -.012846 .0037321 2.5134 -35.781 -558.82)">
                <ellipse cx="190.94" cy="336.12" rx="6.472" ry="7.681" fill="#bdbdbd" stroke="#373737" stroke-width=".68px"/>
            </g>
            <g transform="matrix(.5544 0 0 1.9082 .8496 -368.39)">
                <path d="m187.01 340.41l5.291-5.55 1.023 1.078-3.753 6.427-2.004 0.056-0.557-2.011z" fill="#373737"/>
            </g>
        <g transform="matrix(.50066 .17368 -.01466 .50066 16.645 164.02)">
            <g transform="matrix(.80564 .043224 -.012558 2.773 -46.79 -656.98)">
                <ellipse cx="190.94" cy="336.12" rx="6.472" ry="7.681" fill="#373737"/>
            </g>
            <g transform="matrix(.5544 0 0 1.9082 .8496 -368.39)">
                <path d="m172.11 341.19l-3.954-0.11" fill="none" stroke="#373737" stroke-width="1.79px"/>
            </g>
            <g transform="matrix(.5544 0 0 1.9082 .8496 -368.39)">
                <path d="m174.44 334.2l-3.81-2.826" fill="none" stroke="#373737" stroke-width="1.79px"/>
            </g>
            <g transform="matrix(.5544 0 0 1.9082 .8496 -368.39)">
                <path d="m181.02 329.06l-1.256-2.473" fill="none" stroke="#373737" stroke-width="1.79px"/>
            </g>
            <g transform="matrix(.5544 0 0 1.9082 .8496 -368.39)">
                <path d="m189.27 330.08l1.444-1.719" fill="none" stroke="#373737" stroke-width="1.79px"/>
            </g>
            <g transform="matrix(.7302 -.012846 .0037321 2.5134 -35.781 -558.82)">
                <ellipse cx="190.94" cy="336.12" rx="6.472" ry="7.681" fill="#bdbdbd" stroke="#373737" stroke-width="1.36px"/>
            </g>
            <g transform="matrix(-.24493 -1.7119 .49736 -.84306 -17.997 894.38)">
                <path d="m187.01 340.41l5.291-5.55 1.023 1.078-3.753 6.427-2.004 0.056-0.557-2.011z" fill="#373737"/>
            </g>
        </g>
        <g transform="matrix(.50066 .17368 -.01466 .50066 29.149 163.42)">
            <g transform="matrix(.80564 .043224 -.012558 2.773 -46.79 -656.98)">
                <ellipse cx="190.94" cy="336.12" rx="6.472" ry="7.681" fill="#373737"/>
            </g>
            <g transform="matrix(.5544 0 0 1.9082 .8496 -368.39)">
                <path d="m172.11 341.19l-3.954-0.11" fill="none" stroke="#373737" stroke-width="1.79px"/>
            </g>
            <g transform="matrix(.5544 0 0 1.9082 .8496 -368.39)">
                <path d="m174.44 334.2l-3.81-2.826" fill="none" stroke="#373737" stroke-width="1.79px"/>
            </g>
            <g transform="matrix(.5544 0 0 1.9082 .8496 -368.39)">
                <path d="m181.02 329.06l-1.256-2.473" fill="none" stroke="#373737" stroke-width="1.79px"/>
            </g>
            <g transform="matrix(.5544 0 0 1.9082 .8496 -368.39)">
                <path d="m189.27 330.08l1.444-1.719" fill="none" stroke="#373737" stroke-width="1.79px"/>
            </g>
            <g transform="matrix(.7302 -.012846 .0037321 2.5134 -35.781 -558.82)">
                <ellipse cx="190.94" cy="336.12" rx="6.472" ry="7.681" fill="#bdbdbd" stroke="#373737" stroke-width="1.36px"/>
            </g>
            <g transform="matrix(-.059202 1.8973 -.55123 -.20377 304.07 -5.1416)">
                <path d="m187.01 340.41l5.291-5.55 1.023 1.078-3.753 6.427-2.004 0.056-0.557-2.011z" fill="#373737"/>
            </g>
        </g>
        <g transform="translate(-.017418 -4.8624)">
            <g transform="matrix(.5372 0 0 1.8602 31.502 -358.91)">
                <path d="m141.19 366.22l9.359 0.485-0.261 16.483-9.494 0.335 0.396-17.303z" fill="#8f8f8f"/>
            </g>
            <g transform="matrix(.5544 0 0 1.9082 .8496 -368.39)">
                <path d="m193.36 363.22l6.605 0.315 0.079 14.05-6.941 0.056 0.257-14.421z" fill="#4f4f4f"/>
            </g>
            <g transform="matrix(.5544 0 0 1.9082 .92271 -368.4)">
                <path d="m192.81 362.55l7.556 0.442 0.073 14.826-0.556-0.218-0.044-14.123-6.605-0.251-0.424-0.676z" fill="#cfcfcf"/>
            </g>
            <g transform="matrix(.5544 0 0 1.9082 .8496 -368.39)">
                <path d="m193.36 369.39l2.373-5.768 6.737-0.133 0.728 1.011-3.442 6.439-5.867 0.164-0.573-0.26 0.044-1.453z" fill="#373737"/>
            </g>
            <g transform="matrix(.5544 0 0 1.9082 .8496 -368.39)">
                <path d="m196.59 364.7l-0.857-1.078 6.765-0.122 0.682 0.982-6.59 0.218z" fill="#5c5c5c"/>
            </g>
            <g transform="matrix(.5544 0 0 1.9082 .8496 -368.39)">
                <path d="m193.9 371.06l2.691-6.367 6.62-0.202-3.442 6.439-5.869 0.13z" fill="#3d3d3d"/>
            </g>
        </g>
        <g transform="matrix(1.0909 0 0 1.0909 -20.504 -34.972)">
            <g transform="matrix(.5372 0 0 1.8602 31.502 -358.91)">
                <path d="m141.19 366.22l9.359 0.485-0.261 16.483-9.494 0.335 0.396-17.303z" fill="#8f8f8f"/>
            </g>
            <g transform="matrix(.5544 0 0 1.9082 .8496 -368.39)">
                <path d="m193.36 363.22l6.605 0.315 0.079 14.05-6.941 0.056 0.257-14.421z" fill="#4f4f4f"/>
            </g>
            <g transform="matrix(.5544 0 0 1.9082 .92271 -368.4)">
                <path d="m192.81 362.55l7.556 0.442 0.073 14.826-0.556-0.218-0.044-14.123-6.605-0.251-0.424-0.676z" fill="#cfcfcf"/>
            </g>
            <g transform="matrix(.5544 0 0 1.9082 .8496 -368.39)">
                <path d="m193.36 369.39l2.373-5.768 6.737-0.133 0.728 1.011-3.442 6.439-5.867 0.164-0.573-0.26 0.044-1.453z" fill="#373737"/>
            </g>
            <g transform="matrix(.5544 0 0 1.9082 .8496 -368.39)">
                <path d="m196.59 364.7l-0.857-1.078 6.765-0.122 0.682 0.982-6.59 0.218z" fill="#5c5c5c"/>
            </g>
            <g transform="matrix(.5544 0 0 1.9082 .8496 -368.39)">
                <path d="m193.9 371.06l2.691-6.367 6.62-0.202-3.442 6.439-5.869 0.13z" fill="#3d3d3d"/>
            </g>
        </g>
        <g transform="matrix(.063235 0 0 .21765 87.063 281.83)">
            <text x="175.531px" y="385.859px" fill="rgb(55,55,55)" font-family="'Impact', sans-serif" font-size="64px" font-stretch="condensed">G</text>
        </g>
        <g transform="matrix(.063235 0 0 .21765 97.699 279.62)">
            <text x="175.531px" y="385.859px" fill="rgb(55,55,55)" font-family="'Impact', sans-serif" font-size="64px" font-stretch="condensed">O</text>
        </g>
    </g>
    <g transform="matrix(-.51284 -.52227 -.63535 .78794 623.32 90.106)">
        <g transform="translate(10.149 6.8771)">
            <path d="m338.8 465.47c-4e-3 3.521-0.959 6.071-2.701 7.863-1.741 1.792-4.265 2.841-7.316 3.554-3.052 0.713-6.626 1.116-10.446 1.471-3.819 0.354-7.881 0.632-11.96 0.879s-7.956 0.278-11.522 0.069c-3.565-0.209-6.818-0.639-9.594-1.369-2.775-0.731-5.07-1.771-6.685-3.275-1.615-1.503-2.549-3.475-2.603-6.008-0.055-2.533 0.798-4.389 2.34-5.667 1.541-1.279 3.77-1.971 6.48-2.278 2.709-0.306 5.898-0.226 9.416-0.128s7.368 0.187 11.465-0.098 8.218-1.179 12.128-2.033c3.911-0.854 7.604-1.641 10.751-1.816 3.147-0.176 5.742 0.258 7.519 1.636 1.776 1.378 2.731 3.68 2.728 7.2z" fill="#e1d6b9" fill-rule="nonzero"/>
        </g>
        <g transform="translate(10.149 6.8771)">
            <path d="m329.53 454.84c-3-0.022-6.469 0.432-10.209 1.03-4.274 0.683-8.886 1.536-13.608 1.861-4.722 0.324-9.129 0.306-13.158 0.331s-7.683 0.128-10.806 0.687-5.708 1.574-7.527 3.175c-1.818 1.601-2.868 3.774-2.921 6.541-0.054 2.767 0.974 5.046 2.834 6.864s4.55 3.184 7.809 4.2c3.259 1.017 7.082 1.695 11.246 2.078 4.163 0.383 8.667 0.449 13.362 0.178 4.696-0.271 9.177-0.629 13.285-1.079 4.107-0.451 7.834-0.979 10.965-1.875 1.191-0.341 2.294-0.743 3.302-1.216 2.036-0.955 1.64-4.938-0.08-3.633-1.593 1.209-3.648 2.003-6.056 2.566-2.935 0.686-6.374 1.073-10.047 1.414-3.674 0.341-7.58 0.608-11.503 0.845-3.923 0.238-7.652 0.268-11.081 0.067-3.43-0.201-6.559-0.614-9.229-1.317-2.669-0.702-4.876-1.704-6.429-3.15-1.554-1.446-2.453-3.342-2.505-5.778s0.769-4.222 2.252-5.451c1.482-1.23 3.625-1.896 6.231-2.191s5.674-0.218 9.058-0.124c3.383 0.095 7.086 0.181 11.026-0.093 3.941-0.275 7.904-1.134 11.666-1.955 3.761-0.821 7.312-1.578 10.339-1.747 0.378-0.021 0.75-0.034 1.111-0.036 0.928-5e-3 1.8 0.036 2.6 0.189 0.922 0.178 1.852-2.289-0.67-2.342-0.41-8e-3 -0.828-0.036-1.257-0.039z" fill="#394655" fill-rule="nonzero"/>
        </g>
    </g>
    <g transform="matrix(1.2679 .17759 -.15101 1.0781 -11.199 -71.242)">
        <g transform="matrix(-.77777 .084546 -.071891 -.91468 517.3 428.78)">
            <path d="m240.64 216.19l-22.761 2.654c-1.843-16.115-2.162-34.763 3.233-51.178l20.243 1.475-11.483-46.328-37.862 45.866 16.657-1.849c-8.009 26.243-10.441 42.963-6.881 70.088l36.432 0.023c-0.138-6.275 0.727-13.231 2.422-20.751z" fill="#2f752a" stroke="#9fc894" stroke-width="2.5px"/>
        </g>
        <g transform="matrix(.77354 -.12742 .10835 .9097 26.18 79.867)">
            <path d="m240.64 216.19l-28.986 2.463c1.012-16.235 5.206-38.681 10.601-55.096l20.243 1.475-11.483-46.329-47.925 41.939 18.52 1.055c-8.009 26.242-11.71 51.116-13.213 75.291l49.821-0.047c-0.138-6.275 0.727-13.231 2.422-20.751z" fill="#2f752a" stroke="#9fc894" stroke-width="2.5px"/>
        </g>
        <g transform="matrix(.83648 .040204 -.023124 .85264 92.555 27.047)">
                <ellipse cx="226.79" cy="247.74" rx="51.907" ry="65.938" fill="#a5a5a5"/>
                <path d="m218.2 182.38l0.323-0.065 0.324-0.062 0.324-0.059 0.325-0.057 0.326-0.055 0.326-0.051 0.327-0.05 0.328-0.046 0.328-0.045 0.328-0.041 0.33-0.039 0.329-0.036 0.331-0.034 0.331-0.031 0.331-0.029 0.332-0.025 0.333-0.024 0.333-0.02 0.333-0.018 0.334-0.015 0.335-0.013 0.335-0.01 0.336-7e-3 0.187-2e-3 0.149-2e-3 0.336-2e-3 0.337 1e-3 0.337-1e-3 0.337 3e-3 0.336 4e-3 0.335 8e-3 0.335 0.01 0.335 0.013 0.334 0.016 0.334 0.018 0.333 0.021 0.332 0.024 0.332 0.026 0.332 0.029 0.33 0.031 0.331 0.034 0.33 0.037 0.329 0.039 0.328 0.042 0.328 0.045 0.328 0.047 0.327 0.049 0.326 0.053 0.326 0.054 0.325 0.058 0.324 0.059 0.324 0.063 0.323 0.065 0.322 0.067 0.322 0.07 0.321 0.072 0.321 0.075 0.32 0.078 0.319 0.08 0.318 0.082 0.318 0.085 0.317 0.087 0.317 0.089 0.315 0.093 0.315 0.094 0.315 0.097 0.313 0.099 0.313 0.102 0.312 0.104 0.311 0.107 0.311 0.109 0.31 0.111 0.309 0.114 0.308 0.116 0.307 0.118 0.307 0.121 0.306 0.123 0.305 0.125 0.304 0.127 0.304 0.13 0.302 0.133 0.302 0.134 0.301 0.137 0.3 0.139 0.299 0.141 0.299 0.144 0.297 0.146 0.297 0.148 0.296 0.15 0.295 0.153 0.294 0.155 0.293 0.156 0.292 0.16 0.292 0.161 0.29 0.164 0.29 0.165 0.288 0.168 0.288 0.17 0.287 0.172 0.286 0.175 0.284 0.176 0.284 0.179 0.283 0.18 0.282 0.183 0.281 0.185 0.28 0.187 0.279 0.189 0.278 0.192 0.277 0.193 0.276 0.195 0.275 0.198 0.274 0.199 0.273 0.201 0.272 0.204 0.271 0.205 0.269 0.208 0.269 0.209 0.268 0.212 0.266 0.214 0.266 0.215 0.264 0.218 0.264 0.219 0.262 0.221 0.261 0.224 0.26 0.225 0.259 0.227 0.258 0.229 0.256 0.231 0.256 0.233 0.254 0.235 0.254 0.237 0.252 0.239 0.251 0.24 0.249 0.243 0.249 0.244 0.247 0.246 0.247 0.248 0.245 0.25 0.243 0.251 0.243 0.254 0.241 0.255 0.241 0.257 0.239 0.259 0.237 0.26 0.237 0.263 0.123 0.138 0.112 0.126 0.234 0.266 0.232 0.268 0.232 0.27 0.23 0.271 0.229 0.273 0.227 0.275 0.226 0.276 0.225 0.278 0.224 0.28 0.222 0.282 0.221 0.283 0.22 0.285 0.218 0.287 0.217 0.288 0.216 0.29 0.214 0.291 0.213 0.294 0.211 0.294 0.211 0.297 0.208 0.298 0.208 0.299 0.206 0.302 0.204 0.302 0.204 0.305 0.201 0.306 0.201 0.307 0.199 0.309 0.197 0.311 0.197 0.312 0.194 0.314 0.193 0.315 0.192 0.316 0.191 0.319 0.188 0.319 0.188 0.322 0.186 0.322 0.184 0.324 0.183 0.326 0.181 0.327 0.18 0.328 0.179 0.33 0.176 0.332 0.176 0.332 0.174 0.335 0.172 0.335 0.171 0.337 0.169 0.338 0.167 0.34 0.166 0.341 0.165 0.343 0.163 0.344 0.161 0.345 0.16 0.346 0.158 0.348 0.156 0.35 0.155 0.35 0.154 0.352 0.151 0.353 0.15 0.354 0.149 0.356 0.146 0.357 0.145 0.358 0.144 0.36 0.142 0.361 0.14 0.362 0.138 0.363 0.137 0.364 0.135 0.366 0.133 0.367 0.132 0.368 0.13 0.369 0.128 0.371 0.127 0.371 0.125 0.373 0.123 0.374 0.121 0.375 0.119 0.377 0.118 0.377 0.116 0.379 0.115 0.379 0.112 0.381 0.111 0.382 0.109 0.383 0.107 0.384 0.105 0.385 0.104 0.387 0.101 0.387 0.1 0.388 0.098 0.39 0.097 0.39 0.094 0.392 0.093 0.392 0.09 0.394 0.089 0.394 0.087 0.396 0.085 0.397 0.083 0.397 0.082 0.399 0.079 0.399 0.078 0.401 0.075 0.401 0.074 0.402 0.072 0.404 0.07 0.404 0.068 0.405 0.066 0.406 0.064 0.407 0.062 0.408 0.06 0.408 0.058 0.41 0.056 0.41 0.055 0.412 0.052 0.412 0.05 0.413 0.049 0.414 0.046 0.415 0.044 0.415 0.042 0.416 0.041 0.418 0.038 0.418 0.036 0.418 0.034 0.42 0.032 0.42 0.03 0.421 0.028 0.422 0.026 0.422 0.024 0.424 0.021 0.424 0.02 0.424 0.018 0.426 0.015 0.426 0.013 0.427 0.012 0.427 9e-3 0.429 7e-3 0.429 4e-3 0.429 3e-3 0.43 1e-3 0.431-1e-3 0.149-1e-3 0.28-4e-3 0.429-6e-3 0.429-9e-3 0.427-0.01 0.428-0.012 0.426-0.015 0.426-0.017 0.425-0.019 0.424-0.02 0.424-0.023 0.423-0.025 0.422-0.028 0.422-0.029 0.421-0.031 0.42-0.033 0.419-0.036 0.419-0.037 0.418-0.039 0.417-0.042 0.416-0.043 0.416-0.046 0.414-0.047 0.414-0.05 0.414-0.051 0.412-0.054 0.411-0.055 0.411-0.058 0.41-0.059 0.409-0.061 0.408-0.064 0.407-0.065 0.407-0.067 0.405-0.069 0.405-0.071 0.404-0.073 0.402-0.075 0.402-0.077 0.401-0.079 0.4-0.08 0.399-0.083 0.399-0.084 0.397-0.087 0.396-0.088 0.395-0.09 0.394-0.092 0.394-0.094 0.392-0.095 0.391-0.098 0.391-0.099 0.389-0.101 0.388-0.103 0.387-0.105 0.386-0.106 0.385-0.109 0.384-0.11 0.383-0.112 0.382-0.114 0.381-0.115 0.379-0.117 0.379-0.119 0.377-0.121 0.377-0.123 0.375-0.124 0.374-0.126 0.373-0.128 0.371-0.13 0.371-0.131 0.369-0.133 0.368-0.135 0.367-0.136 0.366-0.138 0.365-0.053 0.136-0.087 0.227-0.142 0.362-0.143 0.361-0.145 0.36-0.147 0.358-0.148 0.357-0.15 0.356-0.152 0.354-0.153 0.354-0.155 0.352-0.157 0.35-0.158 0.35-0.16 0.348-0.161 0.346-0.163 0.346-0.165 0.344-0.166 0.342-0.168 0.342-0.169 0.34-0.171 0.338-0.172 0.337-0.174 0.336-0.176 0.335-0.177 0.333-0.179 0.331-0.18 0.33-0.182 0.329-0.183 0.327-0.185 0.326-0.186 0.325-0.188 0.323-0.189 0.321-0.191 0.32-0.192 0.318-0.194 0.317-0.195 0.316-0.197 0.314-0.198 0.312-0.199 0.311-0.201 0.31-0.203 0.307-0.204 0.307-0.205 0.304-0.207 0.303-0.208 0.302-0.209 0.3-0.211 0.298-0.213 0.297-0.213 0.295-0.215 0.294-0.217 0.292-0.218 0.29-0.219 0.288-0.221 0.287-0.221 0.286-0.224 0.283-0.224 0.282-0.226 0.28-0.227 0.279-0.229 0.277-0.23 0.275-0.231 0.273-0.233 0.272-0.233 0.27-0.235 0.268-0.237 0.266-0.237 0.265-0.239 0.263-0.24 0.261-0.242 0.259-0.242 0.258-0.244 0.255-0.246 0.254-0.246 0.252-0.247 0.25-0.249 0.249-0.245 0.242-5e-3 4e-3 -0.252 0.245-0.252 0.242-0.254 0.241-0.255 0.239-0.256 0.237-0.257 0.235-0.259 0.233-0.26 0.231-0.26 0.229-0.262 0.227-0.263 0.226-0.265 0.223-0.265 0.222-0.266 0.219-0.268 0.217-0.269 0.216-0.269 0.214-0.271 0.211-0.272 0.21-0.273 0.207-0.274 0.205-0.276 0.204-0.276 0.201-0.277 0.2-0.278 0.197-0.28 0.195-0.28 0.193-0.282 0.191-0.282 0.189-0.284 0.187-0.284 0.185-0.286 0.182-0.286 0.181-0.288 0.178-0.288 0.176-0.29 0.174-0.29 0.172-0.291 0.17-0.293 0.167-0.293 0.166-0.294 0.163-0.295 0.161-0.297 0.159-0.297 0.156-0.298 0.154-0.298 0.152-0.3 0.15-0.301 0.148-0.302 0.145-0.302 0.143-0.303 0.141-0.305 0.138-0.305 0.136-0.306 0.134-0.306 0.131-0.308 0.129-0.309 0.127-0.309 0.125-0.31 0.122-0.311 0.12-0.312 0.117-0.312 0.115-0.314 0.113-0.314 0.11-0.315 0.108-0.316 0.105-0.316 0.103-0.318 0.101-0.318 0.098-0.318 0.096-0.32 0.093-0.32 0.091-0.321 0.088-0.322 0.086-0.323 0.084-0.244 0.061-0.079 0.019-0.324 0.078-0.325 0.076-0.325 0.073-0.326 0.07-0.327 0.068-0.327 0.065-0.328 0.063-0.329 0.06-0.329 0.058-0.33 0.055-0.331 0.052-0.331 0.05-0.332 0.047-0.333 0.045-0.333 0.042-0.333 0.039-0.335 0.037-0.335 0.034-0.335 0.031-0.336 0.029-0.337 0.026-0.337 0.024-0.338 0.02-0.338 0.018-0.339 0.016-0.339 0.012-0.34 0.01-0.34 7e-3 -0.341 5e-3 -0.341 1e-3 -0.342-1e-3 -0.341-3e-3 -0.34-7e-3 -0.34-9e-3 -0.339-0.012-0.339-0.015-0.338-0.017-0.338-0.02-0.337-0.023-0.337-0.026-0.336-0.028-0.336-0.031-0.335-0.033-0.334-0.036-0.334-0.039-0.333-0.041-0.333-0.044-0.332-0.047-0.331-0.049-0.331-0.052-0.33-0.054-0.329-0.057-0.329-0.06-0.328-0.062-0.328-0.065-0.327-0.067-0.326-0.07-0.325-0.072-0.325-0.075-0.324-0.077-0.324-0.08-0.323-0.082-0.322-0.085-0.321-0.087-0.321-0.09-0.319-0.092-0.32-0.095-0.318-0.097-0.11-0.035-0.208-0.065-0.316-0.103-0.316-0.105-0.315-0.107-0.315-0.11-0.313-0.112-0.313-0.114-0.312-0.117-0.311-0.12-0.311-0.121-0.309-0.124-0.309-0.127-0.308-0.128-0.307-0.131-0.306-0.134-0.306-0.135-0.304-0.138-0.304-0.141-0.303-0.142-0.301-0.145-0.301-0.147-0.3-0.149-0.3-0.152-0.298-0.154-0.297-0.156-0.297-0.158-0.295-0.161-0.295-0.162-0.293-0.165-0.293-0.167-0.292-0.17-0.29-0.171-0.29-0.174-0.289-0.175-0.288-0.178-0.013-9e-3 -0.274-0.172-0.285-0.182-0.285-0.185-0.284-0.187-0.282-0.189-0.282-0.191-0.28-0.193-0.28-0.195-0.278-0.197-0.278-0.199-0.276-0.202-0.276-0.203-0.274-0.206-0.273-0.207-0.272-0.21-0.271-0.211-0.27-0.213-0.269-0.216-0.268-0.217-0.267-0.22-0.265-0.221-0.264-0.224-0.264-0.225-0.262-0.227-0.261-0.23-0.26-0.231-0.258-0.233-0.258-0.235-0.256-0.237-0.255-0.238-0.254-0.241-0.253-0.243-0.252-0.244-0.25-0.246-0.249-0.248-0.248-0.25-0.247-0.252-0.047-0.049-0.198-0.205-0.244-0.256-0.243-0.257-0.242-0.26-0.24-0.261-0.239-0.263-0.238-0.265-0.236-0.266-0.235-0.268-0.234-0.27-0.233-0.272-0.231-0.273-0.23-0.276-0.229-0.277-0.227-0.278-0.226-0.28-0.225-0.282-0.224-0.284-0.222-0.286-0.22-0.287-0.22-0.288-0.218-0.291-0.216-0.292-0.215-0.293-0.214-0.295-0.213-0.297-0.211-0.299-0.21-0.3-0.208-0.301-0.207-0.304-0.205-0.304-0.204-0.307-0.203-0.308-0.201-0.309-0.2-0.311-0.198-0.313-0.197-0.314-0.195-0.315-0.194-0.318-0.192-0.318-0.191-0.32-0.189-0.322-0.188-0.323-0.187-0.324-0.185-0.326-0.183-0.328-0.182-0.329-0.18-0.33-0.179-0.332-0.177-0.333-0.176-0.335-0.174-0.335-0.173-0.338-0.171-0.339-0.17-0.34-0.167-0.341-0.167-0.343-0.164-0.344-0.164-0.346-0.161-0.347-0.16-0.348-0.158-0.349-0.157-0.351-0.155-0.352-0.154-0.354-0.151-0.354-0.151-0.356-0.148-0.358-0.147-0.358-0.145-0.36-0.144-0.361-0.141-0.362-0.141-0.364-0.138-0.364-0.137-0.366-0.135-0.368-0.133-0.368-0.026-0.072-0.105-0.297-0.13-0.371-0.128-0.372-0.126-0.373-0.124-0.375-0.123-0.375-0.121-0.377-0.119-0.378-0.117-0.378-0.116-0.38-0.114-0.381-0.111-0.382-0.111-0.384-0.108-0.384-0.107-0.385-0.104-0.387-0.103-0.387-0.101-0.389-0.1-0.389-0.097-0.391-0.096-0.391-0.094-0.393-0.091-0.393-0.09-0.395-0.089-0.396-0.086-0.396-0.084-0.398-0.083-0.398-0.08-0.399-0.079-0.401-0.077-0.401-0.075-0.402-0.073-0.403-0.071-0.404-0.069-0.405-0.067-0.406-0.065-0.407-0.064-0.407-0.061-0.409-0.059-0.409-0.058-0.41-0.055-0.411-0.054-0.412-0.051-0.413-0.05-0.413-0.047-0.415-0.045-0.415-0.044-0.416-0.041-0.416-0.04-0.418-0.037-0.418-0.035-0.419-0.034-0.42-0.031-0.42-0.029-0.421-0.027-0.422-0.025-0.423-0.023-0.423-0.021-0.424-0.018-0.425-0.017-0.425-0.015-0.426-0.012-0.427-0.01-0.428-9e-3 -0.428-6e-3 -0.428-4e-3 -0.43-1e-3 -0.43v-0.43l2e-3 -0.431 5e-3 -0.43 7e-3 -0.429 9e-3 -0.429 0.011-0.428 6e-3 -0.206 7e-3 -0.221 0.016-0.426 0.017-0.426 0.02-0.425 0.022-0.425 0.024-0.423 0.026-0.423 0.028-0.422 0.03-0.422 0.032-0.42 0.034-0.42 0.036-0.419 0.039-0.419 0.04-0.417 0.042-0.417 0.045-0.416 0.046-0.415 0.049-0.414 0.05-0.413 0.052-0.413 0.055-0.412 0.056-0.41 0.058-0.41 0.061-0.409 0.062-0.409 0.064-0.407 0.066-0.406 0.068-0.406 0.07-0.404 0.072-0.404 0.074-0.403 0.076-0.401 0.078-0.401 0.079-0.4 0.082-0.399 0.083-0.398 0.085-0.397 0.087-0.396 0.089-0.394 0.091-0.394 0.093-0.393 0.094-0.392 0.097-0.391 0.098-0.39 0.1-0.388 0.102-0.388 0.104-0.387 0.105-0.385 0.107-0.385 0.11-0.383 0.11-0.382 0.113-0.381 0.115-0.38 0.116-0.379 0.118-0.378 0.119-0.377 0.122-0.375 0.123-0.375 0.125-0.373 0.127-0.372 0.128-0.371 0.13-0.369 0.132-0.369 0.134-0.367 0.135-0.366 0.137-0.365 0.138-0.363 0.141-0.362 0.142-0.362 0.143-0.359 0.146-0.359 0.146-0.357 0.149-0.356 0.014-0.033 0.136-0.322 0.153-0.353 0.153-0.352 0.156-0.351 0.156-0.349 0.159-0.348 0.16-0.347 0.162-0.345 0.163-0.344 0.165-0.343 0.166-0.341 0.168-0.34 0.17-0.339 0.171-0.337 0.173-0.335 0.174-0.335 0.176-0.333 0.177-0.331 0.179-0.33 0.18-0.329 0.182-0.327 0.183-0.326 0.185-0.324 0.186-0.322 0.188-0.322 0.189-0.32 0.191-0.318 0.192-0.317 0.194-0.315 0.195-0.313 0.196-0.313 0.198-0.31 0.2-0.309 0.201-0.308 0.202-0.306 0.203-0.304 0.205-0.303 0.207-0.301 0.208-0.3 0.209-0.298 0.21-0.297 0.212-0.294 0.214-0.294 0.214-0.291 0.216-0.29 0.218-0.288 0.218-0.287 0.22-0.285 0.222-0.283 0.222-0.282 0.224-0.279 0.226-0.279 0.226-0.276 0.228-0.275 0.229-0.273 0.231-0.271 0.231-0.27 0.233-0.267 0.234-0.266 0.236-0.265 0.237-0.262 0.238-0.261 0.239-0.259 0.24-0.257 0.242-0.255 0.243-0.254 0.244-0.252 0.245-0.249 0.246-0.248 0.248-0.247 0.249-0.244 0.25-0.242 0.251-0.241 0.252-0.239 0.254-0.236 0.254-0.235 0.256-0.233 0.257-0.231 0.258-0.23 0.259-0.227 0.26-0.225 0.262-0.224 0.262-0.221 0.264-0.22 0.264-0.217 0.266-0.216 0.267-0.213 0.268-0.212 0.269-0.209 0.27-0.208 0.271-0.205 0.272-0.204 0.273-0.201 0.274-0.2 0.275-0.197 0.276-0.195 0.278-0.194 0.278-0.191 0.279-0.189 0.28-0.187 0.281-0.185 0.282-0.183 0.284-0.18 0.284-0.179 0.285-0.176 0.286-0.175 0.287-0.172 0.287-0.17 0.289-0.168 0.29-0.165 0.291-0.164 0.291-0.161 0.293-0.159 0.293-0.157 0.294-0.155 0.295-0.152 0.296-0.151 0.297-0.148 0.298-0.146 0.299-0.143 0.299-0.141 0.3-0.139 0.301-0.137 0.302-0.135 0.303-0.132 0.304-0.13 0.189-0.079 0.115-0.048 0.306-0.125 0.306-0.123 0.307-0.12 0.307-0.118 0.309-0.116 0.309-0.113 0.31-0.111 0.311-0.109 0.311-0.106 0.312-0.104 0.313-0.101 0.314-0.099 0.314-0.097 0.316-0.094 0.315-0.092 0.317-0.089 0.317-0.087 0.318-0.085 0.319-0.082 0.319-0.079 0.32-0.077 0.321-0.075 0.321-0.072 0.322-0.069 0.323-0.067zm7.92-0.318l-0.147 4e-3 -0.186 5e-3 -0.332 0.012-0.332 0.014-0.331 0.017-0.331 0.02-0.33 0.022-0.33 0.025-0.329 0.027-0.328 0.031-0.328 0.032-0.327 0.035-0.327 0.038-0.326 0.041-0.325 0.043-0.325 0.045-0.324 0.048-0.323 0.051-0.323 0.053-0.322 0.056-0.322 0.058-0.321 0.06-0.32 0.064-0.32 0.065-0.319 0.068-0.318 0.071-0.317 0.073-0.317 0.076-0.316 0.078-0.316 0.08-0.314 0.083-0.314 0.085-0.314 0.088-0.312 0.09-0.312 0.093-0.311 0.094-0.31 0.098-0.31 0.099-0.309 0.102-0.308 0.105-0.307 0.106-0.306 0.109-0.306 0.112-0.305 0.113-0.304 0.117-0.303 0.118-0.303 0.12-0.301 0.123-0.301 0.126-0.3 0.127-0.114 0.049-0.186 0.081-0.298 0.131-0.297 0.134-0.297 0.137-0.296 0.138-0.295 0.141-0.294 0.143-0.293 0.145-0.293 0.147-0.291 0.15-0.291 0.152-0.289 0.154-0.289 0.156-0.288 0.158-0.287 0.16-0.286 0.163-0.285 0.165-0.284 0.167-0.283 0.168-0.283 0.172-0.281 0.173-0.28 0.175-0.279 0.177-0.279 0.18-0.277 0.181-0.277 0.184-0.275 0.185-0.274 0.188-0.274 0.19-0.272 0.191-0.272 0.194-0.27 0.196-0.269 0.198-0.269 0.199-0.267 0.202-0.266 0.204-0.265 0.205-0.264 0.208-0.263 0.21-0.262 0.211-0.261 0.214-0.26 0.215-0.258 0.218-0.258 0.219-0.256 0.221-0.256 0.223-0.254 0.225-0.253 0.227-0.252 0.229-0.251 0.23-0.249 0.233-0.249 0.234-0.247 0.236-0.247 0.238-0.245 0.24-0.244 0.242-0.242 0.243-0.242 0.245-0.24 0.247-0.239 0.249-0.238 0.251-0.237 0.252-0.235 0.254-0.234 0.256-0.234 0.258-0.231 0.259-0.231 0.261-0.229 0.263-0.228 0.265-0.227 0.266-0.225 0.268-0.225 0.27-0.223 0.271-0.221 0.273-0.221 0.274-0.219 0.277-0.217 0.278-0.217 0.279-0.215 0.282-0.214 0.282-0.212 0.285-0.212 0.286-0.209 0.287-0.209 0.29-0.207 0.291-0.206 0.292-0.204 0.294-0.203 0.295-0.202 0.298-0.2 0.298-0.199 0.3-0.197 0.302-0.196 0.303-0.195 0.305-0.193 0.306-0.192 0.308-0.19 0.309-0.189 0.311-0.187 0.312-0.186 0.313-0.185 0.315-0.183 0.317-0.182 0.318-0.18 0.319-0.178 0.321-0.178 0.322-0.175 0.323-0.174 0.325-0.173 0.327-0.171 0.327-0.17 0.33-0.168 0.33-0.167 0.332-0.165 0.333-0.163 0.334-0.162 0.336-0.16 0.337-0.159 0.339-0.158 0.34-0.155 0.341-0.154 0.342-0.153 0.344-0.151 0.345-0.149 0.346-0.148 0.347-0.146 0.349-0.131 0.318-0.014 0.032-0.143 0.351-0.141 0.352-0.14 0.353-0.138 0.355-0.137 0.356-0.134 0.357-0.134 0.358-0.131 0.36-0.13 0.36-0.128 0.362-0.127 0.363-0.125 0.364-0.123 0.365-0.121 0.367-0.12 0.367-0.118 0.369-0.116 0.369-0.115 0.371-0.113 0.372-0.111 0.373-0.109 0.374-0.107 0.375-0.106 0.376-0.104 0.377-0.103 0.378-0.1 0.38-0.099 0.38-0.097 0.381-0.095 0.382-0.093 0.384-0.092 0.384-0.089 0.385-0.088 0.386-0.086 0.387-0.084 0.389-0.083 0.389-0.08 0.39-0.079 0.391-0.076 0.392-0.075 0.392-0.073 0.394-0.072 0.395-0.069 0.395-0.067 0.397-0.066 0.397-0.063 0.398-0.062 0.399-0.06 0.4-0.058 0.401-0.055 0.401-0.054 0.403-0.052 0.403-0.051 0.404-0.048 0.405-0.046 0.405-0.044 0.407-0.042 0.407-0.04 0.408-0.039 0.409-0.036 0.409-0.034 0.41-0.033 0.411-0.03 0.412-0.028 0.412-0.026 0.414-0.024 0.413-0.023 0.415-0.02 0.415-0.018 0.416-0.016 0.417-0.014 0.417-0.012 0.418-5e-3 0.216-5e-3 0.202-8e-3 0.42-6e-3 0.42-3e-3 0.42-2e-3 0.421v0.422l3e-3 0.422 4e-3 0.421 7e-3 0.42 9e-3 0.42 0.011 0.419 0.013 0.418 0.014 0.418 0.018 0.417 0.019 0.416 0.021 0.416 0.023 0.415 0.025 0.414 0.027 0.413 0.03 0.413 0.031 0.412 0.033 0.411 0.035 0.41 0.038 0.41 0.039 0.408 0.041 0.408 0.043 0.407 0.046 0.407 0.047 0.405 0.049 0.405 0.051 0.404 0.053 0.403 0.055 0.402 0.057 0.402 0.059 0.4 0.06 0.4 0.063 0.398 0.064 0.398 0.067 0.397 0.068 0.396 0.07 0.395 0.072 0.394 0.074 0.394 0.076 0.392 0.078 0.391 0.079 0.391 0.082 0.389 0.083 0.389 0.085 0.387 0.087 0.387 0.089 0.385 0.09 0.385 0.092 0.383 0.095 0.383 0.095 0.381 0.098 0.381 0.1 0.379 0.101 0.378 0.103 0.378 0.105 0.376 0.106 0.375 0.109 0.374 0.11 0.373 0.111 0.372 0.114 0.371 0.115 0.37 0.117 0.368 0.119 0.368 0.12 0.366 0.122 0.365 0.124 0.364 0.125 0.363 0.127 0.362 0.129 0.36 0.105 0.289 0.026 0.07 0.131 0.359 0.134 0.357 0.135 0.356 0.137 0.354 0.138 0.354 0.14 0.352 0.142 0.351 0.143 0.35 0.145 0.348 0.146 0.348 0.148 0.346 0.15 0.344 0.151 0.344 0.153 0.342 0.154 0.341 0.156 0.339 0.157 0.338 0.159 0.337 0.161 0.336 0.162 0.334 0.164 0.333 0.165 0.331 0.167 0.331 0.168 0.328 0.17 0.328 0.171 0.326 0.172 0.324 0.175 0.324 0.175 0.321 0.177 0.321 0.179 0.319 0.18 0.317 0.182 0.316 0.183 0.315 0.184 0.313 0.186 0.312 0.187 0.31 0.189 0.309 0.19 0.307 0.191 0.306 0.193 0.304 0.195 0.303 0.195 0.301 0.197 0.3 0.199 0.298 0.2 0.297 0.201 0.295 0.203 0.293 0.203 0.292 0.206 0.29 0.206 0.289 0.208 0.287 0.209 0.286 0.211 0.284 0.212 0.282 0.213 0.281 0.215 0.279 0.215 0.277 0.217 0.276 0.219 0.274 0.219 0.273 0.221 0.271 0.222 0.269 0.224 0.267 0.224 0.266 0.226 0.264 0.227 0.262 0.229 0.261 0.229 0.258 0.231 0.258 0.232 0.255 0.233 0.254 0.234 0.251 0.236 0.251 0.237 0.248 0.238 0.246 0.193 0.198 0.046 0.047 0.24 0.243 0.241 0.242 0.242 0.24 0.244 0.237 0.244 0.236 0.246 0.235 0.247 0.232 0.248 0.23 0.249 0.229 0.25 0.227 0.252 0.224 0.252 0.223 0.253 0.222 0.255 0.219 0.256 0.217 0.256 0.215 0.258 0.214 0.259 0.211 0.26 0.21 0.261 0.208 0.262 0.205 0.263 0.204 0.264 0.202 0.265 0.199 0.266 0.198 0.267 0.196 0.268 0.194 0.269 0.192 0.27 0.189 0.271 0.188 0.272 0.186 0.273 0.184 0.274 0.181 0.275 0.18 0.276 0.177 0.277 0.176 0.264 0.165 0.013 8e-3 0.279 0.172 0.279 0.169 0.281 0.168 0.281 0.165 0.282 0.163 0.283 0.161 0.284 0.159 0.285 0.157 0.285 0.155 0.287 0.152 0.287 0.151 0.289 0.148 0.289 0.146 0.29 0.144 0.291 0.141 0.292 0.14 0.292 0.137 0.293 0.135 0.295 0.133 0.295 0.13 0.295 0.129 0.297 0.126 0.297 0.123 0.299 0.122 0.299 0.119 0.299 0.117 0.301 0.115 0.301 0.112 0.302 0.11 0.303 0.108 0.304 0.106 0.304 0.103 0.305 0.101 0.306 0.098 0.2 0.063 0.106 0.034 0.307 0.094 0.308 0.092 0.308 0.089 0.31 0.088 0.309 0.084 0.311 0.083 0.311 0.08 0.312 0.078 0.313 0.075 0.313 0.073 0.314 0.07 0.315 0.068 0.315 0.065 0.316 0.063 0.316 0.061 0.317 0.058 0.318 0.055 0.319 0.054 0.319 0.05 0.319 0.048 0.321 0.046 0.32 0.043 0.322 0.04 0.322 0.038 0.322 0.036 0.323 0.033 0.324 0.03 0.324 0.028 0.325 0.025 0.326 0.023 0.326 0.02 0.326 0.017 0.327 0.015 0.328 0.012 0.328 0.01 0.328 7e-3 0.329 4e-3 0.33 2e-3 0.329-1e-3 0.329-4e-3 0.329-6e-3 0.328-9e-3 0.328-0.012 0.327-0.014 0.326-0.017 0.326-0.019 0.325-0.022 0.325-0.025 0.325-0.027 0.323-0.03 0.324-0.032 0.322-0.035 0.322-0.037 0.322-0.04 0.321-0.043 0.32-0.044 0.32-0.048 0.319-0.05 0.318-0.052 0.318-0.055 0.318-0.058 0.316-0.06 0.316-0.062 0.316-0.065 0.314-0.067 0.315-0.07 0.313-0.072 0.313-0.075 0.076-0.019 0.236-0.057 0.311-0.079 0.311-0.082 0.31-0.084 0.31-0.086 0.309-0.088 0.308-0.091 0.307-0.094 0.307-0.095 0.306-0.098 0.305-0.101 0.304-0.102 0.304-0.105 0.303-0.108 0.302-0.109 0.302-0.112 0.301-0.114 0.3-0.117 0.299-0.119 0.298-0.121 0.298-0.123 0.297-0.126 0.296-0.128 0.295-0.13 0.295-0.132 0.293-0.135 0.293-0.136 0.292-0.139 0.291-0.141 0.291-0.144 0.289-0.145 0.289-0.148 0.287-0.15 0.287-0.152 0.286-0.154 0.285-0.157 0.285-0.158 0.283-0.161 0.283-0.163 0.281-0.165 0.281-0.167 0.279-0.169 0.279-0.171 0.278-0.173 0.277-0.176 0.276-0.177 0.275-0.18 0.274-0.181 0.273-0.184 0.273-0.186 0.271-0.187 0.27-0.19 0.269-0.192 0.268-0.194 0.268-0.195 0.266-0.198 0.265-0.2 0.264-0.202 0.264-0.203 0.262-0.206 0.261-0.208 0.26-0.209 0.259-0.212 0.258-0.213 0.257-0.215 0.256-0.218 0.254-0.219 0.254-0.221 0.253-0.223 0.251-0.225 0.251-0.226 0.249-0.229 0.248-0.23 0.247-0.233 0.246-0.234 0.245-0.236 4e-3 -4e-3 0.24-0.233 0.242-0.24 0.242-0.241 0.24-0.243 0.24-0.245 0.238-0.246 0.236-0.249 0.236-0.25 0.235-0.252 0.233-0.254 0.232-0.255 0.231-0.257 0.23-0.259 0.228-0.261 0.227-0.262 0.227-0.264 0.224-0.266 0.224-0.268 0.222-0.269 0.221-0.271 0.22-0.272 0.218-0.275 0.218-0.275 0.215-0.278 0.215-0.279 0.213-0.281 0.212-0.282 0.211-0.284 0.209-0.286 0.209-0.287 0.206-0.289 0.206-0.291 0.204-0.292 0.202-0.293 0.202-0.295 0.2-0.297 0.198-0.298 0.198-0.3 0.195-0.302 0.195-0.302 0.193-0.305 0.192-0.306 0.19-0.307 0.189-0.309 0.187-0.31 0.186-0.312 0.185-0.314 0.183-0.314 0.181-0.317 0.181-0.317 0.178-0.319 0.178-0.321 0.175-0.322 0.175-0.323 0.172-0.325 0.172-0.326 0.17-0.328 0.168-0.329 0.167-0.33 0.165-0.332 0.164-0.333 0.162-0.334 0.161-0.336 0.159-0.337 0.158-0.338 0.156-0.34 0.154-0.341 0.153-0.342 0.151-0.344 0.15-0.345 0.148-0.346 0.147-0.347 0.145-0.349 0.143-0.35 0.142-0.351 0.14-0.353 0.087-0.221 0.052-0.132 0.137-0.355 0.135-0.356 0.134-0.357 0.132-0.359 0.131-0.359 0.128-0.361 0.128-0.362 0.125-0.363 0.124-0.364 0.122-0.366 0.12-0.367 0.119-0.367 0.117-0.369 0.115-0.37 0.114-0.371 0.111-0.372 0.11-0.374 0.109-0.374 0.106-0.375 0.105-0.377 0.103-0.378 0.101-0.378 0.1-0.38 0.097-0.381 0.096-0.382 0.094-0.382 0.093-0.384 0.09-0.385 0.089-0.386 0.087-0.387 0.085-0.387 0.083-0.389 0.081-0.39 0.08-0.391 0.078-0.391 0.075-0.393 0.074-0.394 0.072-0.394 0.071-0.396 0.068-0.396 0.066-0.397 0.065-0.398 0.062-0.399 0.061-0.4 0.059-0.401 0.057-0.402 0.055-0.402 0.053-0.403 0.051-0.405 0.049-0.405 0.047-0.406 0.045-0.406 0.043-0.408 0.041-0.408 0.04-0.409 0.037-0.41 0.035-0.411 0.033-0.411 0.031-0.412 0.03-0.413 0.027-0.414 0.025-0.414 0.023-0.416 0.021-0.415 0.019-0.417 0.017-0.417 0.015-0.418 0.013-0.419 0.011-0.42 8e-3 -0.42 7e-3 -0.42 3e-3 -0.275 2e-3 -0.147 2e-3 -0.422 1e-3 -0.422-2e-3 -0.421-3e-3 -0.421-6e-3 -0.42-8e-3 -0.42-0.01-0.419-0.012-0.418-0.014-0.418-0.016-0.417-0.018-0.416-0.02-0.416-0.023-0.415-0.024-0.414-0.026-0.413-0.029-0.413-0.03-0.412-0.032-0.412-0.035-0.41-0.036-0.41-0.038-0.409-0.041-0.408-0.042-0.408-0.044-0.407-0.047-0.406-0.048-0.405-0.05-0.404-0.052-0.404-0.054-0.402-0.056-0.402-0.058-0.401-0.06-0.401-0.062-0.399-0.064-0.399-0.065-0.397-0.068-0.397-0.069-0.396-0.072-0.395-0.073-0.394-0.075-0.393-0.077-0.392-0.078-0.392-0.081-0.39-0.083-0.389-0.084-0.389-0.086-0.387-0.088-0.387-0.09-0.386-0.092-0.384-0.093-0.384-0.095-0.382-0.097-0.382-0.099-0.381-0.101-0.379-0.102-0.379-0.104-0.377-0.106-0.377-0.108-0.375-0.11-0.374-0.111-0.374-0.113-0.372-0.114-0.371-0.117-0.37-0.118-0.369-0.12-0.368-0.121-0.366-0.124-0.366-0.125-0.364-0.126-0.363-0.129-0.362-0.13-0.361-0.132-0.36-0.133-0.359-0.135-0.357-0.137-0.356-0.138-0.355-0.14-0.354-0.142-0.353-0.143-0.351-0.145-0.35-0.147-0.349-0.148-0.347-0.149-0.347-0.152-0.345-0.153-0.344-0.154-0.342-0.156-0.341-0.158-0.34-0.159-0.339-0.161-0.337-0.162-0.336-0.164-0.335-0.166-0.333-0.167-0.332-0.168-0.331-0.17-0.329-0.172-0.328-0.173-0.326-0.175-0.325-0.176-0.324-0.177-0.322-0.179-0.321-0.181-0.319-0.182-0.318-0.183-0.317-0.185-0.315-0.187-0.314-0.188-0.312-0.189-0.311-0.191-0.309-0.192-0.308-0.193-0.306-0.195-0.305-0.197-0.303-0.198-0.302-0.199-0.3-0.2-0.298-0.202-0.297-0.204-0.296-0.204-0.294-0.207-0.292-0.207-0.291-0.209-0.289-0.21-0.288-0.212-0.286-0.212-0.285-0.215-0.282-0.215-0.282-0.217-0.279-0.218-0.278-0.22-0.276-0.22-0.275-0.222-0.273-0.224-0.271-0.224-0.27-0.226-0.268-0.227-0.266-0.229-0.264-0.109-0.126-0.12-0.137-0.231-0.261-0.232-0.26-0.233-0.258-0.235-0.256-0.235-0.254-0.237-0.252-0.238-0.251-0.24-0.249-0.24-0.247-0.242-0.245-0.243-0.244-0.244-0.241-0.245-0.24-0.247-0.238-0.247-0.237-0.249-0.234-0.25-0.232-0.251-0.231-0.252-0.229-0.254-0.227-0.254-0.225-0.256-0.223-0.256-0.221-0.258-0.219-0.259-0.218-0.26-0.215-0.261-0.214-0.262-0.211-0.263-0.21-0.265-0.208-0.265-0.205-0.266-0.204-0.268-0.202-0.268-0.2-0.27-0.197-0.27-0.196-0.272-0.194-0.272-0.192-0.274-0.189-0.275-0.188-0.275-0.186-0.277-0.183-0.277-0.182-0.279-0.179-0.28-0.177-0.28-0.175-0.281-0.174-0.283-0.171-0.283-0.168-0.285-0.167-0.285-0.165-0.286-0.162-0.287-0.161-0.288-0.158-0.289-0.156-0.29-0.154-0.291-0.152-0.291-0.149-0.293-0.147-0.293-0.146-0.295-0.142-0.295-0.141-0.296-0.139-0.297-0.136-0.297-0.134-0.299-0.131-0.299-0.13-0.3-0.127-0.301-0.125-0.302-0.123-0.303-0.12-0.304-0.118-0.304-0.116-0.305-0.113-0.306-0.111-0.306-0.109-0.308-0.106-0.308-0.104-0.309-0.102-0.31-0.099-0.31-0.097-0.311-0.095-0.312-0.092-0.313-0.09-0.313-0.087-0.315-0.085-0.314-0.083-0.316-0.08-0.316-0.077-0.317-0.076-0.318-0.072-0.318-0.071-0.319-0.067-0.32-0.066-0.32-0.062-0.321-0.061-0.322-0.058-0.322-0.055-0.323-0.053-0.323-0.05-0.325-0.048-0.324-0.045-0.326-0.042-0.326-0.04-0.327-0.038-0.327-0.035-0.328-0.032-0.328-0.03-0.329-0.027-0.33-0.024-0.33-0.022-0.33-0.019-0.332-0.017-0.331-0.014-0.333-0.011-0.043-1e-3 -0.29-8e-3 -0.333-6e-3 -0.334-3e-3 -0.334 4e-3 -0.333 6e-3z" fill="#cfcfcf"/>
            <path d="m211.65 190.28s28.727-8.404 49.003 13.539c15.872 17.176 10.482 62.915 10.482 62.915s-3.597-35.151-24.923-55.265c-20.286-19.133-34.562-21.189-34.562-21.189z" fill="#e2e2e2"/>
            <g transform="matrix(-.99475 .10234 -.10234 -.99475 476.33 472.84)">
                <path d="m211.65 190.28s28.727-8.404 49.003 13.539c15.872 17.176 11.108 59.378 11.108 59.378s-5.892-28.236-27.218-48.35c-20.286-19.134-32.893-24.567-32.893-24.567z" fill="#c1c1c1"/>
            </g>
            <path d="m233.08 283.12c0.277 7e-3 0.582 0.018 0.953 0.033 1.218 0.041 2.985 0.057 2.985 0.057 0.331 0.016 0.662 0.03 0.993 0.044 4.558 0.165 9.083 0.255 13.593 0.116l1.79 0.879-0.919 1.656c-2.304 1.443-4.733 2.633-7.188 3.767l-3.5 1.404c-1.492 0.51-3.602 1.156-3.602 1.156-1.502 0.38-3.579 0.83-3.579 0.83-2.362 0.389-2.372 0.328-3.155 0.397l-0.803 6e-3c0.878-3.436 1.683-6.886 2.432-10.345zm-6.447 0.428c-0.1 3.268-0.228 6.535-0.389 9.794-0.893-0.077-1.619-0.149-1.619-0.149-0.801-0.113-1.601-0.237-2.399-0.372-5.491-0.93-10.854-2.825-15.888-5.381l-1.221-1.776 1.625-0.93c6.105 0.266 12.36-0.302 17.899-0.979l1.992-0.207zm0.304-20.226c-5e-3 3.323-0.029 6.66-0.077 10.004-0.507-0.019-0.992-0.044-1.418-0.076-1.176-0.088-2.806-0.231-2.806-0.231-1.896-0.228-4.57-0.608-4.57-0.608-4.355-0.734-8.615-1.715-12.828-2.889l-0.217-0.062c-2.189-0.66-4.363-1.374-6.506-2.171l-1.209-1.614 1.553-1.046c7.995 0.182 15.917-0.413 23.722-1.043 0 0 2.203-0.147 4.356-0.264zm9.294-0.12c1.09 0.035 2.018 0.069 2.978 0.091 0 0 3.278 0.131 5.839 0.243 4.448 0.178 8.873 0.271 13.388 0.093l1.776 0.961-1.003 1.607c-4.541 2.175-9.347 3.75-14.272 5.07l-4.899 1.098c-1.712 0.295-3.425 0.562-5.152 0.758 0.52-3.294 0.97-6.601 1.345-9.921zm-9.258-22.607c-5e-3 0.839-7e-3 1.355-7e-3 1.355-1e-3 2.284-0.024 4.567-0.073 6.846 0 0-9e-3 0.931-0.011 2.015-13.136-0.121-25.193-1.691-38.351-3.266l-1.554-1.333 1.519-1.372 8.314-1.213c3.53-0.463 7.057-0.949 10.589-1.39 3.193-0.398 7.999-0.895 11.209-1.159 4.374-0.36 5.162-0.378 8.365-0.483zm9.999 0.201c8.052 0.494 16.38 1.501 27.059 3.072l1.553 1.335-1.518 1.374-3.527 0.612c-3.036 0.477-6.068 0.976-9.107 1.431-3.304 0.494-8.176 1.119-11.48 1.461-0.935 0.097-1.87 0.185-2.805 0.267 0.026-1.48 0.026-2.734 0.022-3.073-0.028-2.161-0.096-4.321-0.197-6.479zm-10.126-23.142c0.102 3.426 0.159 6.862 0.177 10.303-11.672-0.03-24.74-0.233-36.135 2.3-0.292 0.066-0.506 0.115-0.506 0.115l-1.705-0.773 0.774-1.705c7.416-3.995 15.591-6.808 23.598-8.557 0 0 4.033-0.798 6.108-1.05 1.826-0.223 3.657-0.396 5.491-0.54 0 0 0.985-0.054 2.198-0.093zm7.605 0.31c2.073 0.224 4.173 0.54 6.302 0.928 3.872 0.705 7.659 1.816 11.508 3.11 4.237 1.425 8.315 3.212 12.27 5.261l1.032 1.769-1.702 0.831c-9.366-1.416-18.841-1.862-27.961-1.914-0.409-3.325-0.893-6.657-1.449-9.985zm-8.828-20.884c0.309 3.346 0.56 6.714 0.76 10.1-0.935 0.034-1.839 0.068-2.709 0.095-10.103 0.36-19.734 2.032-28.004 5.752l-2.001-0.315 0.391-1.831c6.887-6.131 15.311-10.38 24.628-12.717 1.87-0.461 3.173-0.648 4.817-0.904l2.118-0.18zm4.288-0.225c1.556 0.044 3.324 0.19 3.324 0.19 0.541 0.05 0.596 0.074 0.848 0.108 0.47 0.063 0.938 0.132 1.406 0.205 0.652 0.102 1.302 0.214 1.95 0.335 7.817 1.463 15.345 4.794 21.313 10.428l0.429 1.845-1.854 0.386c-7.972-3.123-17.054-3.5-24.971-3.355-0.491-2.283-1.015-4.559-1.571-6.824l-0.087-0.343c-0.258-0.993-0.52-1.985-0.787-2.975z" fill="#282c30"/>
        </g>
        <g transform="matrix(.8933 .4279 -.26718 .8342 99.987 -66.505)">
            <g transform="matrix(.84084 -.11484 .157 1.1422 -23.527 -1.2915)">
                <ellipse cx="318.75" cy="268.04" rx="21.115" ry="18.464" fill="#8f8f8f"/>
            </g>
            <g transform="matrix(.6929 -.094638 .17223 1.2529 33.911 -33.323)">
                <path d="m296.52 249.13s7.585-2.03 13.372 0.058c7.645 2.759 10.166 7.268 10.166 7.268-9.6-4.01-20.204-7.61-23.538-7.326z" fill="#a5a5a5"/>
            </g>
            <g transform="matrix(.93529 .021384 .015176 1.043 16.161 -11.031)">
                <path d="m278.93 270.72c0.102 0.887 0.753 2.553 1.225 3.317 19.215 31.115 31.61 50.784 9.4 93.149-5.504 21.77 56.011-8.577 64.623-29.771-8.077-37.904-18.04-54.207-43.72-76.768-16.324-16.479-28.499-7.081-31.166 5.842-0.354 1.713-0.505 2.973-0.362 4.231z" fill="#a5a5a5"/>
            </g>
            <g transform="matrix(.81983 -.11198 .12149 .88383 8.4065 71.695)">
                <path d="m312.36 254c4.654 4.696 27.4 33.912 31.485 67.968 4.766 39.74-3.677 51.41-3.677 51.41 5.61-0.785 14.304-8.223 21.19-14.87 0.122-46.121-17.347-84.43-48.998-104.51z" fill="#c1c1c1"/>
            </g>
            <g transform="matrix(.79698 -.10885 .1251 .91008 15.286 64.807)">
                <path d="m296.56 273.66c17.039 35.443 26.603 75.412-5.354 106.34 1.866 1.842 7.708 1.725 11.538 1.716 1.936 1.496 20.903-36.861 14.564-61.937-4.72-18.674-10.906-36.512-20.748-46.115z" fill="#c1c1c1"/>
            </g>
        </g>
    </g>
    <g transform="matrix(.69862 .062645 -.060523 .67496 236.26 34.902)">
        <ellipse cx="94.768" cy="376.9" rx="8.665" ry="9.253" fill="#cfcfcf" stroke="#a5a5a5" stroke-width="1.31px"/>
    </g>
    <path d="m280.81 292.69l0.018 8e-3 2.272 2.278 0.014 3.099-4e-3 9e-3 -0.362 0.281-0.349 0.267-0.343 0.266-0.335 0.264-0.258 0.206-0.057 0.061-0.263 0.288-0.127 0.138-0.127 0.141-0.126 0.14-0.124 0.14-0.122 0.14-0.121 0.139-0.12 0.138-0.111 0.13-5e-3 9e-3 -0.08 0.15-0.079 0.15-0.078 0.149-0.076 0.148-0.075 0.147-0.074 0.147-0.073 0.146-0.072 0.145-0.07 0.145-0.069 0.144-0.068 0.144-0.067 0.143-0.03 0.066-0.023 0.08-0.04 0.148-0.039 0.148-0.039 0.147-0.037 0.146-0.036 0.146-0.035 0.144-0.034 0.144-0.033 0.144-0.032 0.142-0.031 0.142-0.03 0.142-0.028 0.141-0.028 0.14-0.027 0.14-0.026 0.139-0.025 0.139-0.023 0.138-0.023 0.138-0.022 0.138-0.021 0.137-0.02 0.137-0.019 0.136-0.018 0.136-0.018 0.136-0.016 0.136-0.015 0.135-0.014 0.135-0.014 0.135-0.012 0.135-0.012 0.135-0.011 0.134-0.01 0.135-9e-3 0.134-8e-3 0.134-7e-3 0.135-6e-3 0.134-6e-3 0.135-4e-3 0.134-4e-3 0.135-3e-3 0.134-2e-3 0.135-1e-3 0.135v0.136 0.135l2e-3 0.136 2e-3 0.136 3e-3 0.136 4e-3 0.137 5e-3 0.137 6e-3 0.137 6e-3 0.138 7e-3 0.138 8e-3 0.138 9e-3 0.139 0.01 0.14 0.011 0.14 0.011 0.14 0.013 0.142 0.013 0.141 0.014 0.142 0.014 0.143 0.016 0.144 0.016 0.144 0.018 0.145 0.018 0.146 0.019 0.146 0.019 0.144 0.042 0.3 0.045 0.299 0.048 0.303 0.052 0.307 0.054 0.31 0.058 0.314 0.061 0.318 0.064 0.322 0.068 0.326 0.07 0.331 0.073 0.335 0.077 0.34 0.079 0.345 0.083 0.349 0.086 0.355 0.088 0.36 0.092 0.365 0.094 0.37 0.097 0.376 0.1 0.382 0.103 0.388 0.106 0.393 0.108 0.4 0.111 0.406 0.114 0.412 0.116 0.418 0.241 0.858 0.25 0.884 0.022 0.076 0.241 0.837 0.272 0.941 0.573 1.976 0.299 1.037 0.308 1.07 0.315 1.105 0.324 1.14 0.164 0.585 0.167 0.594 0.168 0.603 0.17 0.613 0.172 0.623 0.173 0.632 0.175 0.643 0.177 0.653 0.178 0.663 0.18 0.674 0.181 0.684 0.183 0.696 0.184 0.706 0.186 0.717 0.187 0.728 0.188 0.74 0.189 0.752 0.191 0.762 0.192 0.775 0.194 0.787 0.194 0.798 0.195 0.811 0.197 0.823 0.198 0.836 0.198 0.849 0.2 0.861 0.2 0.874 0.202 0.887 0.071 0.316 0.132 0.584 0.205 0.913 0.206 0.927 0.207 0.944 0.062 0.29 0.06 0.293 0.056 0.293 0.054 0.292 0.051 0.29 0.048 0.29 0.045 0.29 0.041 0.288 0.039 0.288 0.036 0.287 0.033 0.286 0.03 0.286 0.028 0.284 0.024 0.284 0.021 0.283 0.018 0.283 0.016 0.281 0.012 0.281 0.01 0.279 6e-3 0.279 4e-3 0.279 1e-3 0.277-2e-3 0.276-5e-3 0.276-8e-3 0.275-0.011 0.274-0.013 0.273-0.017 0.272-0.019 0.271-0.023 0.271-0.025 0.269-0.028 0.269-0.031 0.268-0.033 0.267-0.037 0.265-0.039 0.265-0.042 0.264-0.045 0.263-0.048 0.263-0.05 0.261-0.054 0.26-0.056 0.259-0.058 0.258-0.062 0.257-0.064 0.257-0.067 0.255-0.07 0.254-0.072 0.253-0.075 0.252-0.078 0.251-0.081 0.25-0.083 0.249-0.085 0.248-0.089 0.247-0.091 0.245-0.093 0.245-0.096 0.243-0.099 0.243-0.101 0.241-0.104 0.24-0.106 0.239-0.109 0.238-0.111 0.237-0.114 0.236-0.116 0.235-0.119 0.233-0.121 0.232-0.123 0.231-0.126 0.231-0.128 0.228-0.131 0.228-0.133 0.227-0.135 0.225-0.138 0.225-0.139 0.223-0.143 0.222-0.144 0.221-0.147 0.219-0.149 0.219-0.151 0.217-0.153 0.217-0.156 0.215-0.158 0.214-0.16 0.212-0.162 0.212-0.164 0.211-0.166 0.209-0.169 0.208-0.17 0.208-0.173 0.206-0.174 0.204-0.177 0.204-0.179 0.203-0.181 0.201-0.182 0.201-0.185 0.199-0.187 0.198-0.189 0.197-0.19 0.196-0.193 0.195-0.195 0.194-0.196 0.193-0.198 0.191-0.201 0.191-0.202 0.189-0.204 0.189-0.206 0.187-0.207 0.186-0.21 0.185-0.211 0.185-0.214 0.183-0.215 0.182-0.216 0.181-0.219 0.18-0.22 0.179-0.222 0.178-0.224 0.177-0.226 0.175-0.227 0.175-0.229 0.174-0.231 0.173-0.232 0.172-0.235 0.171-0.235 0.17-0.238 0.169-0.239 0.168-0.241 0.167-0.242 0.166-0.244 0.165-0.246 0.164-0.247 0.163-0.249 0.162-0.251 0.161-0.252 0.161-0.253 0.159-0.255 0.158-0.257 0.158-0.258 0.156-0.26 0.156-0.262 0.155-0.262 0.154-0.265 0.152-0.266 0.152-0.267 0.151-0.269 0.151-0.27 0.149-0.272 0.148-0.273 0.148-0.275 0.146-0.276 0.146-0.278 0.145-0.279 0.144-0.28 0.143-0.282 0.143-0.284 0.141-0.284 0.141-0.286 0.139-0.288 0.139-0.289 0.138-0.29 0.137-0.291 0.137-0.293 0.135-0.294 0.135-0.296 0.134-0.297 0.133-0.298 0.132-0.299 0.131-0.301 0.131-0.302 0.129-0.303 0.129-0.305 0.128-0.305 0.128-0.308 0.126-0.308 0.126-0.309 0.125-0.311 0.124-0.312 0.123-0.313 0.123-0.315 0.121-0.316 0.121-0.316 0.121-0.318 0.119-0.32 0.119-0.32 0.117-0.321 0.118-0.323 0.116-0.324 0.115-0.325 0.115-0.326 0.114-0.327 0.114-0.328 0.112-0.329 0.112-0.331 0.111-0.331 0.11-0.333 0.11-0.334 0.109-0.334 0.108-0.336 0.107-0.337 0.107-0.338 0.105-0.339 0.106-0.34 0.104-0.341 0.104-0.342 0.103-0.343 0.102-0.343 0.101-0.345 0.101-0.346 0.1-0.347 0.1-0.348 0.098-0.349 0.098-0.349 0.098-0.351 0.096-0.351 0.096-0.353 0.095-0.353 0.095-0.354 0.094-0.355 0.093-0.356 0.092-0.357 0.092-0.358 0.091-0.358 0.09-0.36 0.09-0.36 0.089-0.361 0.088-0.362 0.088-0.363 0.087-0.363 0.086-0.365 0.086-0.365 0.085-0.366 0.084-0.366 0.084-0.368 0.083-0.368 0.082-0.369 0.082-0.37 0.081-0.37 0.08-0.371 0.08-0.372 0.079-0.373 0.079-0.373 0.077-0.375 0.078-0.678 0.138-0.071 0.014-0.752 0.151-0.755 0.148-0.758 0.145-0.76 0.144-0.763 0.14-0.764 0.138-0.767 0.136-0.77 0.133-0.771 0.131-0.774 0.129-0.775 0.126-0.777 0.123-0.78 0.122-0.781 0.119-0.783 0.116-0.784 0.115-0.786 0.112-0.788 0.109-0.789 0.108-0.79 0.105-0.792 0.103-0.793 0.1-0.794 0.099-0.796 0.096-0.796 0.094-0.798 0.092-0.798 0.089-0.799 0.088-0.8 0.085-0.801 0.084-0.801 0.081-0.802 0.079-0.803 0.076-0.803 0.075-0.803 0.073-0.804 0.071-0.803 0.068-0.804 0.067-0.805 0.065-0.804 0.062-0.804 0.061-0.804 0.059-0.804 0.056-0.804 0.055-0.803 0.053-0.803 0.051-0.803 0.049-0.802 0.047-0.801 0.045-0.801 0.043-0.8 0.042-0.8 0.04-0.798 0.037-0.798 0.036-0.797 0.035-0.795 0.032-0.795 0.031-0.793 0.029-0.792 0.027-0.791 0.025-0.789 0.024-0.788 0.022-0.787 0.02-0.784 0.018-0.784 0.017-0.781 0.016-0.78 0.013-0.777 0.012-0.776 0.01-0.774 9e-3 -0.772 7e-3 -0.769 6e-3 -0.768 4e-3 -0.765 2e-3 -0.763 1e-3 -0.76-1e-3 -0.758-2e-3 -0.756-4e-3 -0.752-5e-3 -0.751-7e-3 -0.747-8e-3 -0.745-0.01-0.741-0.011-0.739-0.012-0.736-0.014-0.732-0.015-0.73-0.017-0.726-0.018-0.723-0.02-0.72-0.021-0.716-0.022-0.713-0.023-0.709-0.025-0.705-0.027-0.702-0.027-0.698-0.029-0.695-0.03-0.69-0.031-0.686-0.033-0.683-0.033-0.678-0.035-0.674-0.037-0.67-0.037-0.512-0.03-0.154-9e-3 -0.661-0.039-0.657-0.041-0.653-0.041-0.648-0.043-0.643-0.044-0.639-0.046-0.633-0.046-0.63-0.047-0.624-0.049-0.619-0.049-0.614-0.051-0.609-0.052-0.604-0.052-0.599-0.054-0.594-0.055-0.588-0.055-0.583-0.057-0.577-0.058-0.572-0.059-0.567-0.059-0.561-0.061-0.555-0.061-0.549-0.063-0.544-0.063-0.537-0.065-0.532-0.065-0.526-0.066-0.519-0.067-0.514-0.068-0.508-0.069-0.367-0.051-0.364-0.052-0.36-0.054-0.357-0.054-0.354-0.055-0.35-0.057-0.347-0.057-0.343-0.059-0.34-0.06-0.337-0.06-0.333-0.062-0.33-0.062-0.327-0.064-0.324-0.064-0.321-0.066-0.317-0.066-0.315-0.068-0.311-0.068-0.308-0.07-0.305-0.07-0.303-0.071-0.299-0.073-0.296-0.073-0.293-0.074-0.291-0.075-0.287-0.076-0.285-0.077-0.282-0.078-0.279-0.078-0.276-0.08-0.274-0.08-0.271-0.082-0.268-0.082-0.265-0.083-0.263-0.084-0.26-0.085-0.258-0.086-0.255-0.086-0.252-0.088-0.25-0.088-0.247-0.089-0.245-0.09-0.242-0.09-0.24-0.092-0.238-0.092-0.235-0.093-0.233-0.094-0.23-0.094-0.228-0.096-0.225-0.096-0.224-0.096-0.221-0.098-0.218-0.098-0.217-0.099-0.214-0.1-0.212-0.1-0.21-0.101-0.208-0.102-0.205-0.102-0.203-0.103-0.202-0.104-0.199-0.104-0.197-0.105-0.195-0.106-0.193-0.106-0.19-0.106-0.189-0.107-0.187-0.108-0.185-0.108-0.182-0.109-0.181-0.109-0.179-0.11-0.177-0.11-0.175-0.11-0.173-0.111-0.172-0.111-0.169-0.112-0.168-0.112-0.166-0.112-0.164-0.113-0.162-0.113-0.16-0.113-0.159-0.114-0.157-0.114-0.155-0.114-0.153-0.114-0.152-0.114-0.15-0.114-0.149-0.115-0.147-0.115-0.145-0.114-0.144-0.115-0.142-0.115-0.14-0.115-0.139-0.115-0.138-0.115-0.136-0.114-0.134-0.115-0.133-0.115-0.136-0.117-0.255-0.225-0.254-0.228-0.249-0.227-0.243-0.225-0.239-0.225-0.234-0.223-0.229-0.221-0.225-0.219-0.221-0.218-0.217-0.216-0.214-0.213-0.21-0.212-0.408-0.413-0.399-0.403-0.39-0.395-0.189-0.19-0.189-0.189-0.187-0.186-0.186-0.182-0.184-0.179-0.183-0.176-0.182-0.172-0.181-0.17-0.181-0.166-0.18-0.163-0.18-0.16-0.185-0.16-0.086-0.074-0.091-0.076-0.09-0.076-0.091-0.074-0.091-0.075-0.091-0.073-0.091-0.073-0.092-0.071-0.092-0.072-0.092-0.07-0.093-0.07-0.093-0.069-0.094-0.069-0.094-0.067-0.095-0.068-0.095-0.066-0.096-0.066-0.097-0.065-0.097-0.065-0.098-0.064-0.099-0.064-0.1-0.063-0.1-0.062-0.102-0.062-0.102-0.061-0.104-0.061-0.104-0.06-0.106-0.06-0.106-0.059-0.108-0.059-0.109-0.058-0.11-0.057-0.112-0.057-0.113-0.057-0.114-0.056-0.116-0.056-0.117-0.055-0.119-0.055-0.121-0.054-0.122-0.053-0.123-0.054-0.126-0.052-0.127-0.052-0.129-0.052-0.131-0.051-0.133-0.051-0.134-0.05-0.137-0.05-0.139-0.049-0.141-0.048-0.142-0.048-0.146-0.048-0.147-0.046-0.149-0.047-0.152-0.045-0.154-0.045-0.157-0.045-0.159-0.044-0.161-0.043-0.164-0.043-0.166-0.041-0.169-0.042-0.171-0.04-0.174-0.04-0.177-0.039-0.179-0.039-0.182-0.037-0.185-0.037-0.188-0.036-0.19-0.035-0.193-0.035-0.197-0.034-0.199-0.033-0.202-0.032-0.205-0.031-0.208-0.03-0.211-0.03-0.214-0.028-0.217-0.028-0.22-0.026-0.224-0.026-0.226-0.025-0.23-0.024-0.233-0.022-0.236-0.022-0.24-0.021-0.243-0.02-0.246-0.018-0.25-0.018-0.253-0.016-0.256-0.016-0.221-0.012-0.039-2e-3 -0.263-0.013-0.267-0.013-0.27-0.01-0.284-0.011h-0.01l-2.932-1.383-1.111-3.045 1e-3 -0.02 1.383-2.932 3.045-1.111h0.01l0.304 0.017 0.31 0.018 0.308 0.019 0.305 0.021 0.302 0.022 0.299 0.024 0.296 0.024 0.293 0.026 0.29 0.028 0.288 0.028 0.285 0.03 0.282 0.031 0.28 0.033 0.277 0.034 0.274 0.035 0.272 0.036 0.269 0.037 0.267 0.039 0.264 0.04 0.262 0.041 0.259 0.043 0.257 0.044 0.254 0.045 0.252 0.046 0.25 0.048 0.247 0.049 0.245 0.05 0.243 0.051 0.24 0.053 0.239 0.053 0.236 0.055 0.233 0.057 0.232 0.057 0.229 0.059 0.228 0.06 0.225 0.061 0.223 0.062 0.221 0.064 0.219 0.065 0.217 0.065 0.214 0.068 0.213 0.068 0.211 0.069 0.209 0.071 0.207 0.072 0.205 0.073 0.203 0.074 0.201 0.076 0.199 0.076 0.197 0.078 0.195 0.078 0.194 0.08 0.191 0.081 0.19 0.082 0.188 0.083 0.186 0.084 0.184 0.085 0.182 0.086 0.181 0.087 0.178 0.089 0.177 0.089 0.175 0.09 0.174 0.091 0.171 0.092 0.17 0.092 0.168 0.094 0.166 0.095 0.165 0.095 0.163 0.096 0.161 0.097 0.159 0.098 0.158 0.098 0.156 0.1 0.155 0.099 0.152 0.101 0.151 0.101 0.15 0.102 0.148 0.102 0.146 0.103 0.145 0.103 0.143 0.104 0.141 0.105 0.14 0.105 0.139 0.105 0.137 0.105 0.135 0.106 0.134 0.107 0.133 0.106 0.131 0.107 0.13 0.107 0.129 0.108 0.127 0.107 0.125 0.108 0.125 0.108 0.123 0.108 0.126 0.112 0.236 0.212 0.236 0.217 0.231 0.216 0.227 0.217 0.222 0.215 0.219 0.216 0.216 0.214 0.212 0.214 0.209 0.213 0.206 0.212 0.204 0.211 0.202 0.211 0.395 0.413 0.39 0.41 0.388 0.407 0.19 0.199 0.192 0.198 0.191 0.197 0.191 0.195 0.192 0.194 0.192 0.192 0.193 0.191 0.194 0.189 0.196 0.188 0.197 0.186 0.199 0.185 0.204 0.187 0.098 0.089 0.102 0.091 0.103 0.091 0.104 0.09 0.104 0.09 0.104 0.09 0.106 0.09 0.107 0.089 0.107 0.089 0.108 0.089 0.109 0.088 0.111 0.089 0.111 0.088 0.112 0.087 0.113 0.088 0.115 0.087 0.115 0.087 0.117 0.087 0.118 0.086 0.119 0.087 0.121 0.086 0.121 0.086 0.124 0.085 0.124 0.086 0.127 0.085 0.127 0.085 0.129 0.085 0.131 0.085 0.132 0.084 0.134 0.084 0.136 0.084 0.137 0.084 0.14 0.084 0.14 0.083 0.143 0.083 0.145 0.083 0.147 0.083 0.148 0.083 0.151 0.082 0.152 0.082 0.155 0.082 0.156 0.082 0.159 0.081 0.161 0.081 0.164 0.081 0.165 0.081 0.168 0.08 0.17 0.081 0.172 0.08 0.175 0.079 0.177 0.079 0.18 0.079 0.183 0.079 0.184 0.079 0.188 0.078 0.19 0.078 0.192 0.077 0.196 0.077 0.198 0.077 0.2 0.076 0.204 0.076 0.206 0.076 0.209 0.075 0.212 0.075 0.215 0.074 0.218 0.074 0.221 0.074 0.224 0.073 0.227 0.072 0.23 0.073 0.233 0.071 0.236 0.071 0.239 0.071 0.243 0.07 0.246 0.07 0.248 0.069 0.253 0.069 0.255 0.068 0.259 0.067 0.262 0.067 0.266 0.066 0.269 0.066 0.273 0.065 0.276 0.065 0.279 0.063 0.283 0.064 0.287 0.062 0.29 0.062 0.293 0.061 0.298 0.06 0.301 0.06 0.305 0.059 0.308 0.059 0.313 0.057 0.316 0.057 0.319 0.056 0.324 0.055 0.328 0.055 0.331 0.054 0.336 0.053 0.481 0.073 0.488 0.074 0.495 0.073 0.501 0.072 0.508 0.072 0.514 0.07 0.521 0.071 0.527 0.069 0.533 0.069 0.539 0.068 0.545 0.067 0.551 0.067 0.557 0.065 0.563 0.065 0.568 0.065 0.574 0.063 0.58 0.062 0.585 0.062 0.59 0.061 0.596 0.059 0.601 0.059 0.606 0.058 0.611 0.057 0.617 0.056 0.621 0.056 0.626 0.054 0.631 0.053 0.635 0.052 0.641 0.051 0.645 0.05 0.15 0.011 0.499 0.038 0.654 0.048 0.658 0.046 0.662 0.046 0.667 0.044 0.671 0.043 0.675 0.042 0.678 0.041 0.683 0.04 0.687 0.038 0.69 0.037 0.695 0.037 0.697 0.034 0.702 0.034 0.705 0.032 0.708 0.032 0.711 0.029 0.715 0.029 0.718 0.027 0.722 0.026 0.724 0.025 0.727 0.023 0.731 0.022 0.733 0.02 0.736 0.019 0.738 0.018 0.741 0.016 0.744 0.015 0.747 0.013 0.748 0.012 0.752 0.01 0.753 9e-3 0.756 7e-3 0.757 6e-3 0.76 5e-3 0.762 2e-3 0.764 2e-3 0.765-1e-3 0.768-2e-3 0.769-3e-3 0.771-6e-3 0.772-6e-3 0.774-9e-3 0.775-0.01 0.777-0.012 0.778-0.013 0.779-0.015 0.781-0.017 0.781-0.019 0.783-0.02 0.783-0.022 0.784-0.024 0.785-0.026 0.786-0.027 0.787-0.029 0.787-0.032 0.787-0.032 0.789-0.035 0.788-0.037 0.789-0.038 0.789-0.041 0.789-0.042 0.789-0.044 0.789-0.046 0.79-0.048 0.789-0.05 0.789-0.052 0.788-0.054 0.789-0.056 0.788-0.058 0.787-0.06 0.787-0.062 0.786-0.064 0.786-0.066 0.785-0.068 0.784-0.07 0.783-0.073 0.782-0.074 0.781-0.077 0.78-0.079 0.779-0.08 0.778-0.083 0.776-0.086 0.775-0.087 0.773-0.09 0.772-0.091 0.771-0.094 0.768-0.097 0.767-0.098 0.765-0.101 0.763-0.103 0.761-0.105 0.759-0.108 0.758-0.11 0.754-0.112 0.753-0.115 0.75-0.117 0.748-0.119 0.745-0.122 0.743-0.124 0.741-0.126 0.737-0.129 0.735-0.131 0.732-0.134 0.069-0.013 0.661-0.124 0.362-0.069 0.363-0.071 0.362-0.07 0.361-0.071 0.36-0.072 0.36-0.073 0.358-0.073 0.358-0.074 0.357-0.074 0.356-0.075 0.356-0.076 0.354-0.076 0.354-0.077 0.353-0.077 0.352-0.078 0.351-0.079 0.35-0.079 0.349-0.08 0.349-0.081 0.347-0.081 0.347-0.082 0.346-0.083 0.344-0.083 0.344-0.084 0.343-0.084 0.341-0.086 0.341-0.085 0.34-0.087 0.339-0.087 0.338-0.088 0.336-0.088 0.336-0.089 0.335-0.09 0.334-0.09 0.332-0.091 0.332-0.092 0.33-0.092 0.33-0.093 0.328-0.094 0.327-0.094 0.326-0.095 0.325-0.096 0.324-0.096 0.323-0.097 0.321-0.097 0.321-0.099 0.319-0.099 0.318-0.099 0.317-0.1 0.316-0.101 0.314-0.102 0.314-0.102 0.312-0.103 0.31-0.104 0.31-0.104 0.308-0.105 0.308-0.106 0.305-0.106 0.305-0.107 0.303-0.108 0.302-0.108 0.301-0.109 0.299-0.11 0.298-0.11 0.297-0.111 0.295-0.112 0.294-0.112 0.293-0.113 0.291-0.114 0.29-0.115 0.289-0.115 0.287-0.116 0.285-0.116 0.285-0.117 0.283-0.118 0.281-0.119 0.28-0.119 0.279-0.12 0.277-0.12 0.275-0.122 0.274-0.122 0.273-0.122 0.271-0.124 0.27-0.124 0.268-0.124 0.267-0.126 0.265-0.126 0.263-0.127 0.262-0.127 0.261-0.128 0.258-0.129 0.258-0.129 0.255-0.131 0.254-0.13 0.253-0.132 0.251-0.132 0.249-0.133 0.248-0.134 0.246-0.134 0.244-0.135 0.243-0.135 0.241-0.137 0.239-0.137 0.238-0.137 0.236-0.139 0.234-0.139 0.232-0.139 0.231-0.14 0.229-0.141 0.228-0.142 0.225-0.142 0.224-0.143 0.222-0.144 0.221-0.144 0.218-0.145 0.217-0.146 0.215-0.146 0.213-0.147 0.211-0.148 0.21-0.148 0.208-0.149 0.206-0.15 0.204-0.15 0.202-0.151 0.2-0.151 0.199-0.153 0.197-0.153 0.194-0.153 0.193-0.154 0.191-0.155 0.19-0.155 0.187-0.157 0.185-0.156 0.184-0.158 0.181-0.158 0.18-0.158 0.178-0.16 0.175-0.159 0.174-0.161 0.172-0.161 0.17-0.162 0.168-0.162 0.166-0.163 0.164-0.164 0.162-0.164 0.16-0.165 0.158-0.166 0.157-0.166 0.154-0.167 0.152-0.167 0.15-0.169 0.148-0.168 0.146-0.17 0.145-0.17 0.142-0.17 0.14-0.171 0.138-0.172 0.136-0.173 0.135-0.173 0.132-0.174 0.13-0.174 0.128-0.175 0.126-0.176 0.124-0.176 0.122-0.177 0.12-0.177 0.118-0.179 0.116-0.179 0.113-0.179 0.112-0.18 0.11-0.181 0.108-0.182 0.105-0.182 0.104-0.183 0.102-0.183 0.099-0.185 0.098-0.185 0.095-0.185 0.093-0.187 0.092-0.187 0.089-0.188 0.087-0.188 0.085-0.19 0.083-0.19 0.081-0.191 0.079-0.191 0.077-0.192 0.075-0.194 0.073-0.194 0.07-0.194 0.069-0.196 0.066-0.196 0.064-0.197 0.063-0.199 0.06-0.198 0.058-0.2 0.056-0.201 0.053-0.201 0.052-0.203 0.05-0.203 0.047-0.204 0.045-0.206 0.043-0.206 0.041-0.207 0.039-0.208 0.036-0.209 0.035-0.21 0.032-0.211 0.03-0.212 0.028-0.213 0.025-0.214 0.024-0.216 0.021-0.216 0.018-0.217 0.017-0.218 0.014-0.22 0.012-0.221 0.01-0.221 7e-3 -0.223 5e-3 -0.224 3e-3 -0.225v-0.226l-2e-3 -0.228-4e-3 -0.228-7e-3 -0.23-9e-3 -0.231-0.012-0.232-0.014-0.233-0.016-0.235-0.019-0.235-0.022-0.237-0.024-0.239-0.026-0.239-0.029-0.241-0.031-0.242-0.034-0.243-0.037-0.244-0.039-0.246-0.042-0.247-0.044-0.248-0.047-0.25-0.051-0.255-0.189-0.928-0.19-0.919-0.189-0.905-0.122-0.579-0.067-0.313-0.19-0.879-0.188-0.866-0.188-0.852-0.187-0.84-0.186-0.828-0.185-0.815-0.184-0.803-0.184-0.791-0.182-0.779-0.181-0.767-0.18-0.755-0.179-0.744-0.178-0.732-0.176-0.721-0.176-0.711-0.174-0.699-0.173-0.689-0.172-0.678-0.17-0.667-0.169-0.658-0.167-0.647-0.166-0.637-0.165-0.627-0.163-0.618-0.161-0.608-0.16-0.599-0.158-0.59-0.157-0.58-0.308-1.135-0.301-1.101-0.295-1.067-0.286-1.035-0.55-1.981-0.263-0.948-0.234-0.845-0.021-0.076-0.248-0.895-0.239-0.871-0.117-0.427-0.113-0.422-0.112-0.416-0.109-0.411-0.106-0.406-0.105-0.401-0.101-0.396-0.099-0.392-0.097-0.387-0.093-0.384-0.091-0.379-0.089-0.375-0.086-0.372-0.082-0.368-0.08-0.365-0.078-0.361-0.074-0.359-0.071-0.355-0.068-0.353-0.066-0.35-0.062-0.348-0.059-0.345-0.055-0.344-0.053-0.341-0.049-0.34-0.045-0.335-0.022-0.171-0.021-0.168-0.02-0.167-0.018-0.167-0.018-0.167-0.018-0.167-0.016-0.166-0.015-0.166-0.015-0.166-0.013-0.165-0.013-0.165-0.011-0.165-0.011-0.165-0.01-0.165-8e-3 -0.164-8e-3 -0.164-7e-3 -0.165-6e-3 -0.163-5e-3 -0.164-4e-3 -0.164-2e-3 -0.164-2e-3 -0.163-1e-3 -0.164v-0.163l1e-3 -0.163 3e-3 -0.163 3e-3 -0.164 4e-3 -0.163 6e-3 -0.163 6e-3 -0.163 8e-3 -0.164 8e-3 -0.163 0.01-0.163 0.011-0.163 0.011-0.164 0.013-0.163 0.014-0.164 0.015-0.163 0.016-0.164 0.018-0.164 0.018-0.164 0.02-0.164 0.02-0.164 0.022-0.164 0.023-0.165 0.024-0.165 0.025-0.165 0.026-0.165 0.027-0.165 0.028-0.166 0.03-0.166 0.031-0.166 0.031-0.166 0.033-0.167 0.034-0.167 0.035-0.167 0.037-0.167 0.037-0.168 0.039-0.168 0.04-0.169 0.04-0.169 0.042-0.169 0.044-0.17 0.044-0.17 0.045-0.171 0.047-0.171 0.048-0.172 0.026-0.091 0.011-0.084 0.026-0.179 0.027-0.181 0.028-0.181 0.03-0.182 0.03-0.183 0.031-0.184 0.033-0.185 0.033-0.185 0.035-0.187 0.035-0.187 0.037-0.189 0.038-0.189 2e-3 -0.012 3e-3 -0.191 3e-3 -0.205 4e-3 -0.206 5e-3 -0.208 6e-3 -0.209 7e-3 -0.21 7e-3 -0.213 0.01-0.216 0.019-0.429 5e-3 -0.093-0.029-0.364-0.034-0.47-0.031-0.477-0.028-0.486-0.031-0.48 4e-3 -0.01 2.275-2.103 3.216 0.107z" fill="#282c30"/>
    <g transform="translate(10.657 .11834)">
        <g transform="matrix(1.2546 .10908 -.10908 1.2546 7.4568 -20.899)">
            <ellipse cx="44.274" cy="102.76" rx="24.808" ry="30.155" fill="#282c30"/>
        </g>
        <g transform="matrix(1.2232 0 0 1.2225 -1.4018 -7.9021)">
            <ellipse cx="28.567" cy="103.11" rx="16.483" ry="20.379" fill="#282c30"/>
        </g>
        <g transform="translate(3.0691 16.272)">
            <ellipse cx="28.567" cy="103.11" rx="16.483" ry="20.379" fill="#545d65"/>
        </g>
        <g transform="matrix(.55651 .040376 -.048056 .66238 20.988 49.09)">
            <ellipse cx="28.567" cy="103.11" rx="16.483" ry="20.379" fill="#626c75"/>
        </g>
        <path d="m39.924 86.196c3.484-90.291 127.62-76.043 133.09-44.745l-16.745 0.181c-21.971-26.45-92.537-7.669-89.975 55.098 0 0-14.329-3.384-26.373-10.534z" fill="#282c30"/>
        <path d="m49.332 82.779c11.961 2.962 31.292 19.294 14.338 59.457 25.868-24.842 13.949-52.743 3.204-59.463-3.508-2.194-0.846 1.907-17.542 6e-3z" fill="#545d65"/>
        <path d="m57.13 83.298c4.606-12.935 9.144-28.896 18.631-40.226 10.404-12.425 35.046-22.607 52.054-21.618 14.685 0.855 35.017 7.846 41.62 14.669 1.397 1.444 2.925 5.271 2.925 5.271l-1.931 0.171c-1.548-10.395-27.587-16.667-42.184-17.379-16.505-0.806-41.147 11.001-50.392 22.409-8.092 9.984-11.427 26.032-13.045 36.281l-7.678 0.422z" fill="#545d65"/>
        <g transform="matrix(.55437 -.19392 .19392 .55437 -9.599 60.121)">
            <path d="m47.918 80.688c11.961 2.962 32.706 21.385 15.752 61.548 25.868-24.842 12.328-49.263 3.314-55.362-5.931-4.013-11.576-8.057-19.066-6.186z" fill="#545d65"/>
        </g>
    </g>
</svg>
